<svg xmlns="http://www.w3.org/2000/svg" width="71" height="25" fill="none" viewBox="0 0 71 25">
    <path fill="#000" fill-opacity=".5" d="M23.85 24.698a2.47 2.47 0 0 1-1.134-.252 2.12 2.12 0 0 1-.86-.851c-.292-.53-.415-1.258-.415-2.441 0-2.695-.207-4.431-.614-5.162-.162-.295-.294-.41-1.032-.425v9.09h-1.978V13.61h1.815c.473 0 1.02.015 1.537.203.606.224 1.068.63 1.413 1.246.597 1.085.853 2.91.853 6.096 0 .962.105 1.36.193 1.522a.411.411 0 0 0 .021.04s.035.026.2.026c.123 0 .123 0 .16-.084.132-.27.198-.774.198-1.505 0-3.188.255-5.01.852-6.093.325-.606.795-1.027 1.4-1.248.53-.188 1.072-.203 1.537-.203h1.815v11.048h-1.98v-9.09c-.69.013-.85.113-1.032.428-.403.72-.597 2.41-.597 5.159 0 1.082-.118 1.802-.383 2.336a2.014 2.014 0 0 1-.799.895 2.181 2.181 0 0 1-1.17.313zM69.7 6.97h-5.24V0h1.752v5.222H69.7V6.97zm-4.792-.447h4.344v-.854h-3.487V.448h-.857v6.075zM67.574 25h-3.326v-6.97h3.103c1.6 0 2.33 1.135 2.33 2.19 0 .404-.11.8-.319 1.146a2.193 2.193 0 0 1-.041 2.954c-.428.446-1.032.68-1.747.68zm-2.879-.448h2.88c1.299 0 1.891-.895 1.891-1.732a1.697 1.697 0 0 0-.54-1.262l-.148-.135.118-.162c.222-.303.34-.67.339-1.045 0-1.197-.976-1.742-1.882-1.742h-2.656l-.002 6.078zm2.88-.857h-2.023v-1.752h2.022c.698 0 1.063.44 1.063.877 0 .435-.365.875-1.063.875zM66 23.248h1.574c.423 0 .615-.224.615-.428 0-.205-.192-.43-.615-.43H66v.858zm1.401-2.164h-1.849v-1.75h1.799c.691 0 1.053.441 1.053.876 0 .552-.502.859-.999.876l-.004-.002zM66 20.637h1.393c.389-.016.563-.224.563-.429s-.19-.428-.605-.428H66v.857zM20.96 4.493C20.96 1.742 22.752 0 25.549 0c2.796 0 4.396 1.518 4.396 4.112v.126h-2.089v-.156c0-1.329-.79-2.214-2.309-2.214-1.563-.003-2.496 1.139-2.496 2.533v2.717c0 1.518.87 2.53 2.498 2.53 1.66 0 2.309-.806 2.309-2.135v-.11H25.17V5.569h4.774v1.834c0 2.64-1.533 4.11-4.396 4.11-2.723 0-4.588-1.549-4.588-4.49v-2.53zM37.423.224l3.287 11.069h-2.15l-.666-2.467h-4.077l-.664 2.467h-2.15L34.07.224h3.352zm-.018 6.705L35.84 1.964h-.19l-1.343 4.965h3.1zM41.769 4.494c0-2.752 1.79-4.491 4.586-4.491 2.796 0 4.395 1.518 4.395 4.112v.126h-2.089v-.158c0-1.329-.79-2.214-2.308-2.214-1.566 0-2.499 1.139-2.499 2.53v2.72c0 1.518.87 2.53 2.5 2.53 1.66 0 2.307-.806 2.307-2.135v-.11h-2.685V5.569h4.774v1.835c0 2.64-1.534 4.11-4.395 4.11-2.72 0-4.586-1.549-4.586-4.49v-2.53zM60.864.224v1.898H54.36v2.64h6.063V6.66H54.36V9.4h6.6v1.897h-8.688V.224h8.592zM8.6.224v1.898H2.094v2.64h6.062V6.66H2.095V9.4h6.599v1.897H.008V.224H8.6zM40.104 13.62v1.896H33.6v2.64h6.062v1.898H33.6v2.735h6.6v1.902h-8.687V13.619h8.591zM61.055 13.707v1.897h-3.352v9.176h-2.09v-9.176h-3.35v-1.896h8.792zM14.055 20.23v-1.976H0v1.976h14.055zM50.725 13.708h-1.977v9.118l-.041-.006c-.476-.068-.783-.352-.996-.92-.246-.66-.32-1.574-.4-2.54l-.014-.173c-.1-1.26-.202-2.562-.665-3.591-.276-.604-.643-1.051-1.12-1.368-.458-.31-1.039-.486-1.727-.522h-2.06V24.69H43.7v-9.123l.049.005c.235.018.461.098.656.232.203.16.367.396.51.734.258.684.32 1.62.386 2.61l.01.138c.064 1.119.148 2.512.612 3.556.275.602.634 1.041 1.098 1.343.447.294 1.004.463 1.64.502h2.063v-10.98zM19.325.312h-1.976V9.43l-.043-.006c-.475-.067-.782-.351-.995-.92-.247-.66-.32-1.573-.4-2.54l-.014-.173c-.1-1.26-.202-2.561-.665-3.591-.276-.603-.643-1.051-1.12-1.368-.46-.31-1.042-.486-1.73-.52h-2.06v10.98h1.976v-9.12l.05.005c.234.019.46.099.654.232.204.162.367.397.51.734.26.684.321 1.62.387 2.61l.01.138c.064 1.119.144 2.512.612 3.557.275.601.634 1.04 1.097 1.342.452.294 1.005.463 1.641.502h2.063l.003-10.98zM70.475 16.017h-1.79L68.2 14.7h-2.238l-.483 1.317h-1.79l2.58-7.035h1.63l2.575 7.035zm-1.481-.447h.84l-2.25-6.14h-1.007l-2.251 6.14h.84l.484-1.317h2.86l.483 1.317zm-.803-2.187h-2.222l1.111-3.03 1.11 3.03zm-1.58-.448h.94l-.47-1.282-.47 1.282z"/>
</svg>
