<svg xmlns="http://www.w3.org/2000/svg" width="166" height="360" fill="none" viewBox="0 0 166 360">
    <path fill="#000" d="M166 43.256v3.863c-.063 0-.189.063-.252.063-4.216 3.737-8.369 7.41-12.584 11.147-.189.19-.378.506-.378.76-.063.823 0 1.583 0 2.406-.126.064-.189.19-.315.254-4.404 3.863-8.746 7.726-13.151 11.59-.44.443-.377 2.976.126 3.42 4.216 3.736 8.432 7.536 12.711 11.272a372.565 372.565 0 0 0 5.474-4.813c2.706-2.406 5.349-4.876 8.054-7.346H166v1.076c-4.216 3.737-8.495 7.537-12.711 11.273-.251.19-.44.57-.44.887-.063.76-.063 1.52-.063 2.28-.126.063-.189.19-.315.253l-12.836 11.4c-.315.253-.503.76-.629 1.203-.126.76-.189 1.52-.252 2.28-.126.127-.252.254-.315.38l-12.836 11.4c-.189.19-.315.57-.315.887l-.188 2.28-.378.38c-4.342 3.8-8.683 7.599-13.025 11.463-.503.443-.315 3.04.189 3.546 1.762 1.584 3.524 3.104 5.222 4.687 2.454 2.153 4.908 4.37 7.362 6.523 4.342-3.863 8.558-7.663 12.774-11.463.189-.19.315-.507.377-.76.126-.823.126-1.583.189-2.407 4.09-3.61 8.117-7.283 12.207-10.893.818-.696 1.825-1.266 1.259-2.66-.126-.38.189-.886.252-1.33l.377-.38a4858.52 4858.52 0 0 1 13.151-11.716c.126-1.14.189-2.027.252-2.913.126-.127.189-.254.314-.317.063 0 .189 0 .252.063v3.864c-.189.063-.377.063-.503.19-4.09 3.673-8.243 7.283-12.333 10.956-.189.19-.504.443-.441.633.315 1.394 0 2.977 1.699 3.864 1.196.633 2.077 1.773 3.083 2.723 2.832 2.533 5.664 5.13 8.432 7.663v3.863c-4.467 3.864-8.935 7.79-13.151 11.463v2.85c4.342 3.927 8.747 7.854 13.151 11.717v3.863c-4.279 3.737-8.495 7.537-12.773 11.273-.252.19-.378.57-.378.887-.126.823-.126 1.583-.189 2.406-.063.064-.125.064-.251.127-4.279 3.8-8.621 7.663-12.9 11.526-.251.254-.44.697-.503 1.077-.126.76-.189 1.52-.252 2.28-.126.127-.251.253-.314.38-4.279 3.8-8.558 7.537-12.774 11.336-.251.254-.377.76-.377 1.14-.063.697 0 1.33 0 2.027 4.278 3.8 8.683 7.727 13.088 11.653 3.964-3.546 7.928-7.093 11.892-10.576.818-.697 1.51-1.33 1.196-2.597-.126-.38.189-.887.252-1.33l.377-.38 4.908-4.37c3.02-2.786 6.041-5.51 9.061-8.296v1.646c-1.195 1.014-2.454 1.964-3.649 3.04-3.273 2.85-6.482 5.763-9.691 8.677.126.316.378.57.315.696-.566 1.964.944 2.724 2.013 3.737.818.76 1.699 1.52 2.58 2.28 2.832 2.533 5.601 5.13 8.432 7.663v3.863a1951.478 1951.478 0 0 0-12.899 11.273c-.189 1.457-.378 2.47-.504 3.484-.188.063-.44.063-.629.19-4.153 3.736-8.369 7.473-12.522 11.209-.251.254-.314.697-.377 1.077a4.703 4.703 0 0 0 0 1.33c.063.317.126.76.314 1.013 4.216 3.8 8.495 7.537 12.774 11.337l11.326-10.07c1.007-.887 2.265-1.52 1.762-3.357-.189-.633-.126-1.203-.692-1.71-2.58-2.279-5.223-4.496-7.74-6.839-1.51-1.394-2.894-2.914-4.279-4.307.315.063.756.063 1.007.253 4.153 3.674 8.306 7.347 12.459 11.083v3.864c-4.216 3.736-8.495 7.536-12.71 11.273-.252.19-.441.57-.441.886-.063.76-.063 1.52-.063 2.28-.063.127-.189.19-.252.317-4.341 3.863-8.746 7.727-13.088 11.59-.503.443-.44 2.976.063 3.42 4.216 3.736 8.432 7.536 12.711 11.336.755-.697 1.573-1.33 2.265-2.026 3.838-3.484 7.677-7.03 11.578-10.514v1.647c-.126 0-.315 0-.378.063-4.215 3.737-8.368 7.41-12.521 11.147-.189.19-.189.506-.252.76-.126.76-.189 1.583-.315 2.343-.125.063-.188.19-.314.253-4.027 3.547-7.992 7.157-12.019 10.703-.755.634-1.636 1.14-1.132 2.47.126.38-.189.95-.315 1.457l-.377.38-11.704 10.45c-.881.76-1.951 1.33-1.384 2.85.125.38-.189.886-.252 1.33l-.378.38c-4.467 3.99-8.935 7.98-13.151 11.716a79.61 79.61 0 0 0-.251 2.913c-.126.127-.252.19-.378.317-4.53 3.99-8.998 8.043-13.466 12.033.126.443.252.887.378 1.267h-1.636c.063-.444.063-.887.126-1.33-4.405-3.927-8.746-7.79-13.151-11.717-.44.38-.818.697-1.196 1.014-3.65 3.23-7.236 6.46-10.885 9.689-.755.697-1.448 1.267-1.007 2.344h-1.636c.126-.507.251-.95.44-1.457.126-.19.252-.317.378-.507 4.279-3.799 8.62-7.599 12.9-11.399.188-.19.314-.507.377-.76.063-.824.126-1.647.126-2.407l.377-.38c3.901-3.42 7.802-6.903 11.767-10.323.944-.823 1.95-1.52 1.447-3.04-.126-.317.126-.823.252-1.203.126-.127.251-.254.314-.38 4.531-3.99 8.998-7.98 13.34-11.78v-2.787c-4.342-3.863-8.746-7.789-13.151-11.716-4.027 3.61-7.991 7.093-11.955 10.64-.755.633-1.636 1.14-1.133 2.47.126.38-.189.95-.315 1.456l-.377.38-11.704 10.45c-.88.823-2.014 1.457-1.447 2.977.126.316-.189.76-.252 1.203l-.377.38c-4.468 3.99-8.935 7.98-13.151 11.716a79.818 79.818 0 0 0-.252 2.914c-.126.063-.189.19-.315.253-4.53 3.99-9.06 8.043-13.528 12.033.126.443.251.887.314 1.267h-1.636c.063-.444.063-.887.126-1.33-4.404-3.927-8.746-7.79-13.15-11.717-4.154 3.674-8.118 7.284-12.145 10.767-.755.633-1.195 1.33-.944 2.28h-1.636c.126-.507.315-.95.44-1.457.126-.127.252-.317.378-.443 4.279-3.8 8.558-7.537 12.774-11.337.251-.253.377-.633.44-1.013.126-.76.126-1.52.189-2.343l.377-.38c.567-.507 1.196-1.014 1.762-1.52 3.587-3.167 7.11-6.27 10.634-9.437.378-.316.755-.823.818-1.266.189-.76.063-1.584.126-2.407l.378-.38c4.404-3.863 8.746-7.726 13.088-11.59.189-.126.251-.443.251-.696 0-.697-.063-1.394-.125-2.28-4.216-3.8-8.62-7.727-13.026-11.653-4.341 3.863-8.62 7.663-12.899 11.526-.189.19-.252.507-.252.76-.125.76-.188 1.52-.251 2.28l-.378.38a3995.593 3995.593 0 0 0-13.025 11.653 75.035 75.035 0 0 1-.377 2.977l-.378.38A4990.51 4990.51 0 0 0 .889 343.449c-.126 1.203-.189 2.027-.315 2.913l-.314.317c-.252-1.773-.63-3.483 1.195-5.003 3.839-3.167 7.425-6.523 11.138-9.817.314-.253.503-.76.629-1.14.189-.696.189-1.456.315-2.216l.377-.38c4.405-3.927 8.872-7.917 12.962-11.59.19-1.267.315-2.153.44-3.04l.378-.38c4.405-3.99 8.872-7.916 13.025-11.653.126-1.14.252-2.027.378-2.913l.377-.38c4.216-3.737 8.37-7.473 12.585-11.273.315-.317.63-.697.692-1.14.126-.76.063-1.52.126-2.217.126-.127.189-.253.315-.317 4.53-3.989 9.06-8.043 13.277-11.779.063-1.204.126-2.027.188-2.85.063-.127.19-.254.252-.317 4.405-3.863 8.746-7.726 13.151-11.653.189-.19.252-.57.315-.887.126-.76.126-1.52.189-2.28l.377-.38c4.279-3.799 8.62-7.599 12.9-11.399.566-.507.44-3.04-.126-3.547-3.21-2.85-6.482-5.763-9.69-8.613-1.008-.887-1.951-1.71-2.958-2.597-3.964 3.547-7.865 6.967-11.704 10.45-.818.697-1.888 1.33-1.321 2.787.126.38-.189.886-.252 1.33l-.315.316-12.836 11.4c-.252.253-.44.633-.503.95-.126.76-.063 1.52-.126 2.28-.126.127-.189.253-.315.317-4.342 3.863-8.62 7.663-12.962 11.526-.252.19-.44.57-.503.887-.063.76-.063 1.52-.063 2.28a1.385 1.385 0 0 1-.252.316 2214.626 2214.626 0 0 0-13.151 11.653c-.189.19-.315.507-.315.76-.126.76-.126 1.584-.188 2.407-.126.127-.19.253-.315.38-4.279 3.8-8.62 7.6-12.9 11.4-.188.19-.314.57-.314.886-.126.76-.126 1.52-.252 2.28l-.377.38-12.837 11.4c-.251.19-.44.57-.503.823C.7 314.95.7 315.71.7 316.533l-.377.38c-.315-1.9-.63-3.673 1.258-5.256 4.027-3.294 7.866-6.904 11.704-10.387-.063-.507-.378-1.013-.189-1.393.378-1.014-.126-1.52-.818-2.154a512.593 512.593 0 0 1-11.137-9.816c-1.51-1.33-1.51-4.37-.063-5.7 3.838-3.42 7.613-6.776 11.452-10.196.314-.317.692-.76.755-1.14.126-.76.126-1.52.126-2.28.126-.19.314-.317.44-.507.692-.57 1.384-1.203 2.077-1.773 3.523-3.103 7.047-6.27 10.634-9.373.566-.507.755-3.04.251-3.547l-12.836-11.4c-4.279 3.8-8.558 7.6-12.773 11.4-.378.317-.504.95-.693 1.393-.566-.95-.44-1.646.44-2.343 1.511-1.203 2.895-2.533 4.343-3.8l8.305-7.41a1.165 1.165 0 0 0-.44-.126c.189-.824.315-1.71.503-2.534 4.09-3.673 8.18-7.346 12.333-10.956.755-.633 1.636-1.14 1.133-2.47-.126-.317.315-.887.44-1.393.315-.317.567-.697.881-1.014 3.964-3.546 7.929-7.093 11.893-10.703.315-.253.566-.696.63-1.076.125-.76 0-1.52 0-2.217-4.406-3.926-8.747-7.79-13.089-11.716-4.279 3.8-8.495 7.536-12.71 11.336-.63.57-.504 3.04.125 3.61 3.776 3.357 7.488 6.65 11.2 10.006.504.444.756 1.204 1.07 1.774-1.07-.824-2.139-1.584-3.083-2.47-3.46-3.04-6.921-6.207-10.445-9.247-4.279 3.8-8.495 7.537-12.71 11.273-.252.19-.441.57-.504.887-.063.823-.063 1.583-.063 2.407-.126.126-.252.253-.315.38-.314-1.9-.629-3.674 1.259-5.257 4.027-3.293 7.865-6.903 11.767-10.386-.063-.507-.378-1.014-.252-1.394.44-1.14-.252-1.646-.944-2.28l-11.137-9.879c-1.448-1.267-1.385-4.307.063-5.574l11.514-10.259c.315-.317.378-.95.504-1.457.126-.633.252-1.267.315-1.837.125-.19.251-.316.377-.506 4.279-3.737 8.495-7.537 12.774-11.337.251-.253.377-.633.44-1.013.126-.76.126-1.52.189-2.28l.377-.38c4.342-3.8 8.684-7.663 12.963-11.526.188-.127.188-.507.251-.76l.189-2.28c.126-.127.252-.254.315-.38 3.838-3.42 7.74-6.777 11.578-10.197.943-.886 2.328-1.52 1.636-3.293-.126-.253.125-.633.188-.95-4.404-3.927-8.746-7.853-13.214-11.843-4.467 3.99-8.935 7.98-13.34 11.97a.909.909 0 0 0 .441.126c-.126.887-.315 1.71-.44 2.597-4.53 4.053-9.124 8.106-13.529 12.096v3.23c-.377.19-.88.254-1.195.57-4.09 3.61-8.118 7.157-12.145 10.83-.251.19-.503.57-.503.823-.063.887-.063 1.774-.063 2.66-.126 0-.378 0-.378-.063-.503-.823 0-3.737.693-4.37 3.9-3.483 7.802-6.966 11.703-10.386.44-.38.818-.634.567-1.457-.19-.507.188-1.267.314-1.963l.378-.38c3.775-3.42 7.614-6.777 11.389-10.197.944-.886 2.328-1.52 1.699-3.293-.126-.317.126-.697.126-.95-4.468-3.99-8.81-7.853-13.214-11.78-4.279 3.8-8.495 7.537-12.71 11.273-.252.19-.441.57-.504.887-.063.823-.063 1.583-.063 2.407l-.315.316c-.314-1.836-.692-3.546 1.196-5.13 4.027-3.356 7.928-6.966 11.83-10.449-.063-.57-.378-1.14-.19-1.52.378-.95-.125-1.394-.754-1.9-3.776-3.357-7.614-6.65-11.327-10.07-.566-.507-.755-1.457-.943-2.28-.126-.443 0-1.013.063-1.52.943.19.692.95.692 1.52 0 .38.063.95.251 1.14 4.216 3.8 8.495 7.6 12.774 11.4 4.467-3.927 8.81-7.853 13.214-11.78-.063-.507-.315-1.077-.126-1.52.315-.95-.126-1.393-.755-1.963-4.09-3.61-8.18-7.22-12.333-10.893-.315.253-.63.506-.944.823-4.279 3.737-8.558 7.473-12.773 11.273.188-.507.251-1.203.629-1.583 3.901-3.547 7.865-7.03 11.766-10.513.315-.254.63-.697.693-1.077.125-.76.063-1.52.063-2.28.125-.19.314-.317.44-.507 4.279-3.8 8.62-7.6 12.9-11.4.44-.38.44-2.976 0-3.356-4.217-3.8-8.495-7.536-12.774-11.4-4.342 3.864-8.62 7.663-12.9 11.527-.251.253-.314.76-.44 1.203-.692-.823-.63-1.457.252-2.217 3.964-3.42 7.865-6.966 11.766-10.45.315-.316.755-.633.818-1.013.063-.76-.125-1.583-.251-2.47-4.216-3.42-8.306-7.03-12.396-10.703-.252-.253-.44-.57-.63-.823l.378-.38c2.328 2.027 4.656 3.99 6.922 6.017 2.076 1.836 4.153 3.673 6.292 5.51 4.027-3.61 7.991-7.094 11.955-10.577.756-.633 1.637-1.203 1.07-2.47-.126-.38.189-.95.315-1.457l.377-.38c4.216-3.736 8.432-7.473 12.585-11.21.315-.253.566-.696.63-1.076.125-.823.125-1.647.188-2.407l.189-.19c.755-.633 1.51-1.33 2.265-1.963 3.587-3.103 7.047-6.143 10.508-9.31.315-.316.63-.76.692-1.14.126-.76.063-1.52.126-2.28.126-.126.189-.253.315-.38 4.53-3.99 9.06-7.98 13.528-11.97C68.532.76 68.406.38 68.28 0h1.636c-.315 1.013.126 1.647.88 2.28 1.196.95 2.266 2.027 3.399 3.04 2.894 2.596 5.852 5.193 8.746 7.79 4.468-3.99 8.935-7.917 13.277-11.78-.063-.507-.126-.887-.189-1.267h1.636c-.063.444-.189.95-.252 1.394-.125.126-.251.19-.377.316-4.09 3.737-8.369 7.473-12.522 11.273-.377.317-.63.824-.755 1.267-.189.76-.189 1.52-.252 2.28l-.377.38c-4.468 3.927-8.935 7.917-13.151 11.59a98.12 98.12 0 0 0-.252 3.04l-.377.38c-4.468 3.926-8.998 7.853-13.277 11.653 0 .886-.063 1.52 0 2.216 0 .317.126.697.314.887 4.216 3.8 8.495 7.6 12.774 11.4 4.341-3.864 8.683-7.663 12.9-11.527.188-.126.188-.506.25-.76l.19-2.28.377-.38c3.901-3.42 7.74-6.903 11.64-10.323.945-.823 2.14-1.456 1.574-3.103-.126-.317.126-.823.252-1.203l.377-.38c4.342-3.863 8.684-7.663 12.962-11.527.252-.19.378-.57.441-.886.063-.76.063-1.52.063-2.217.126-.127.189-.253.314-.317 4.531-3.99 9.061-7.98 13.529-11.97-.126-.506-.252-.886-.378-1.266h1.636c0 .443-.062.887-.062 1.33 4.404 3.927 8.746 7.79 13.151 11.78 4.09-3.674 8.054-7.22 12.081-10.767.692-.633 1.51-1.14.944-2.28h1.636l-.378 1.52c-.126.064-.252.127-.314.19-4.216 3.8-8.495 7.6-12.711 11.4-.315.253-.503.76-.629 1.203-.126.76-.189 1.52-.252 2.28-.126.127-.252.254-.315.38-3.901 3.42-7.739 6.84-11.64 10.323-.881.824-2.14 1.457-1.573 3.104.125.316-.126.823-.252 1.203l-.378.38c-4.341 3.863-8.683 7.663-12.962 11.526-.377.317-.315 2.977.063 3.294 4.216 3.8 8.432 7.6 12.773 11.4.441-.38.818-.697 1.196-1.014 3.587-3.23 7.173-6.397 10.76-9.626.755-.634 1.636-1.14 1.07-2.407-.126-.38.251-.95.377-1.457l.378-.38c3.901-3.483 7.865-7.03 11.766-10.513.818-.76 1.825-1.33 1.322-2.786-.126-.38.126-.887.251-1.33l.378-.38c1.007-.887 2.076-1.774 3.083-2.724 3.65-3.293 7.299-6.65 10.886-9.943v1.647c-.126.063-.252.063-.378.127-4.341 3.8-8.62 7.663-12.773 11.336v2.787c.881.76 1.825 1.583 2.769 2.406 3.523 2.977 6.984 6.143 10.445 9.247zM97.35 211.402c-.062.063-.125.19-.188.253-4.216 3.737-8.432 7.474-12.648 11.273-.314.317-.88.634-.944.95-.126.824 0 1.71.063 2.534 0 .126.252.253.378.316 4.216 3.8 8.494 7.537 12.773 11.337 4.405-3.927 8.809-7.853 12.899-11.527.189-1.33.315-2.28.441-3.23.063-.063.126-.063.189-.126 4.341-3.863 8.746-7.727 13.088-11.59.189-.19.377-.443.377-.697 0-2.28 0-2.28-1.887-3.926a79.63 79.63 0 0 0-2.391-2.09c-2.958-2.66-5.915-5.32-8.936-7.98-4.53 4.053-8.998 7.98-13.402 11.97.126.063.314.126.44.19 0 .823-.126 1.583-.252 2.343zm-28.126-63.205c4.153-3.674 8.306-7.41 12.459-11.083.503-.444 1.006-.824.629-1.71-.189-.444.063-1.077.126-1.647-4.342-3.863-8.747-7.79-13.151-11.716-4.28 3.8-8.495 7.536-12.71 11.336-.253.19-.441.57-.504.823-.063.824 0 1.584 0 2.407l-.378.38c-4.342 3.863-8.746 7.663-13.088 11.526-.189.19-.315.507-.315.824 0 .696.063 1.393.126 2.216 4.28 3.8 8.62 7.727 13.026 11.653 4.341-3.863 8.62-7.663 12.836-11.463.189-.19.252-.57.314-.886.126-.76.19-1.457.315-2.217.063-.19.189-.317.315-.443zm.503 3.293l-.377.38c-4.468 3.99-8.935 7.98-13.151 11.78-.063 1.14-.19 1.963-.252 2.85-.126.126-.252.253-.378.316-4.216 3.737-8.431 7.474-12.584 11.273-.315.317-.63.76-.755 1.14-.126.76-.063 1.52-.126 2.217-.063.127-.189.19-.252.317-4.53 3.99-9.06 8.043-13.277 11.716-.88 3.293 1.573 4.307 3.146 5.827.315.316.692.633 1.007.95 2.958 2.596 5.852 5.256 8.81 7.853 4.53-4.053 8.935-7.98 13.34-11.907-.127-.063-.252-.063-.315-.126.063-.824.188-1.647.251-2.47.126-.127.189-.254.315-.38 4.342-3.8 8.62-7.663 12.962-11.463.252-.19.44-.57.44-.887.063-.76.063-1.52.063-2.28.19-.19.315-.38.504-.57 4.279-3.8 8.495-7.536 12.773-11.336.252-.254.378-.634.44-1.014.127-.76.127-1.52.19-2.28.125-.126.251-.253.377-.316l12.27-10.83c1.385-1.203 1.385-3.293 0-4.56a6.908 6.908 0 0 1-.692-.633c-3.775-3.357-7.614-6.713-11.39-10.133-4.467 3.99-8.871 7.853-12.961 11.526-.19 1.267-.252 2.153-.378 3.04zm26.994-93.288c4.468-3.99 8.998-7.916 13.277-11.716v-2.154c0-.316-.063-.76-.252-.95-4.278-3.8-8.557-7.6-12.836-11.463-4.279 3.863-8.558 7.6-12.773 11.4-.19.19-.315.57-.315.887-.126.76-.126 1.52-.252 2.28-.126.126-.251.253-.377.316-4.216 3.737-8.432 7.474-12.648 11.273-.818.697-.755 3.167.063 3.864 4.153 3.736 8.306 7.41 12.459 11.146 3.901-3.42 7.802-6.966 11.767-10.45.818-.76 1.887-1.33 1.32-2.786-.125-.38.127-.887.253-1.33l.314-.317zm.755 123.307a1.365 1.365 0 0 1-.251.317c-4.342 3.863-8.747 7.727-13.088 11.59-.19.19-.378.57-.378.886-.063.697 0 1.457 0 2.154 4.342 3.863 8.746 7.79 13.151 11.716 4.405-3.926 8.809-7.853 13.025-11.59.063-1.14.126-2.026.252-2.913.126-.127.252-.253.314-.38l13.026-11.59c.188-.19.314-.506.377-.76.063-.76.063-1.52.063-2.28.063-.126.189-.19.252-.316 4.09-3.673 8.18-7.41 12.396-10.893 1.384-1.14.629-2.47 1.069-3.674 0-.063-.188-.253-.377-.38-4.279-3.8-8.558-7.599-12.837-11.463-4.467 3.99-8.872 7.917-13.025 11.59a79.61 79.61 0 0 0-.251 2.913c-.126.127-.252.19-.315.317-4.216 3.8-8.495 7.537-12.71 11.336-.315.254-.63.697-.693 1.077-.063.76 0 1.583 0 2.343zm-56.442-62.888l.378-.38c4.467-3.99 8.935-7.917 13.15-11.653.126-1.204.19-2.09.252-2.914.126-.126.189-.253.315-.38 4.342-3.863 8.62-7.663 12.962-11.526.252-.19.44-.57.44-.887.063-.76.063-1.52.126-2.28.126-.19.315-.316.44-.506 4.28-3.8 8.559-7.537 12.774-11.337.63-.57.504-3.04-.125-3.61-4.216-3.736-8.37-7.473-12.648-11.21-4.468 3.99-8.872 7.917-13.34 11.907.126.063.189.063.315.127-.063.823-.189 1.646-.252 2.47-.126.126-.252.19-.377.316-4.216 3.737-8.432 7.474-12.585 11.273-.315.317-.63.76-.755 1.14-.126.76-.063 1.52-.126 2.28-.063.127-.189.19-.252.317-4.404 3.863-8.746 7.79-13.15 11.653-.19.19-.253.57-.315.887-.126.76-.19 1.52-.252 2.28-.126.126-.252.253-.315.38-4.278 3.8-8.494 7.536-12.773 11.336-.252.19-.503.57-.503.887 0 2.28 0 2.28 1.887 3.926 1.007.887 1.95 1.774 2.958 2.66 2.768 2.47 5.537 4.877 8.305 7.41 3.902-3.483 7.677-6.966 11.578-10.323.944-.823 1.888-1.52 1.448-3.04.125-.38.377-.823.44-1.203zm56.442-57.062c-.126.126-.188.253-.314.316l-.378.19c-4.279 3.8-8.557 7.6-12.836 11.463-.189.127-.252.507-.252.76-.063.697 0 1.457 0 2.154 4.342 3.863 8.746 7.79 13.151 11.716 4.342-3.863 8.684-7.663 12.962-11.526.189-.127.378-.38.315-.57-.315-1.457-.378-2.85-1.888-3.99-2.58-1.963-4.908-4.37-7.362-6.587l.378-.38c.377.254.755.507 1.069.76a837.202 837.202 0 0 1 8.243 7.283c4.468-3.99 8.936-7.916 13.088-11.653 0-.886.063-1.52 0-2.09 0-.38-.062-.823-.314-1.013-4.216-3.8-8.495-7.537-12.711-11.336-4.467 3.99-8.872 7.916-13.025 11.59 0 1.14-.063 2.026-.126 2.913zm40.838 251.681c.503-.444 1.006-.95 1.51-1.394l11.137-9.879c.629-.57.755-3.104.189-3.61-4.216-3.8-8.495-7.6-12.711-11.4-4.215 3.737-8.431 7.473-12.584 11.21-.252.253-.504.633-.567.95-.125.823-.125 1.646-.125 2.406-.126.127-.252.254-.378.317-4.342 3.863-8.746 7.663-13.088 11.526-.189.127-.252.444-.315.634-.063.823-.063 1.583-.063 2.406-.125.127-.251.254-.377.317-4.531 3.927-9.061 7.917-13.403 11.653v2.85c4.279 3.8 8.684 7.727 13.088 11.653 1.007-.887 1.951-1.71 2.895-2.596 3.146-2.787 6.292-5.51 9.375-8.297.378-.38.881-.95.818-1.33-.251-1.393.252-2.28 1.196-3.103 4.279-3.8 8.558-7.663 12.836-11.463-.126 0-.188-.064-.314-.064.126-.886.251-1.71.377-2.596.252.063.378-.064.504-.19zM41.978 211.465c0 .064-.063.127-.063.19-4.279 3.8-8.558 7.6-12.836 11.463-.315.254-.63.697-.693 1.014-.063.76.063 1.52.126 2.343 4.216 3.8 8.62 7.727 13.025 11.653 4.28-3.863 8.558-7.663 12.837-11.463.189-.19.314-.507.377-.76.063-.823.063-1.583.126-2.407.126-.063.189-.19.315-.253 4.53-3.99 8.998-7.916 13.34-11.78 0-.886.063-1.583 0-2.216 0-.317-.126-.697-.378-.887-4.216-3.8-8.495-7.536-12.773-11.4-4.468 3.99-8.873 7.917-13.277 11.843.126 0 .188.064.314.064-.126.95-.251 1.773-.44 2.596zm68.901 45.346c-4.216 3.8-8.495 7.6-12.71 11.4a1.893 1.893 0 0 0-.63 1.076c-.126.76-.063 1.52-.126 2.28-.125.127-.251.254-.377.317-3.335 2.977-6.796 5.953-10.068 8.993-1.384 1.33-3.775 2.09-3.146 4.813.126.444.189.95.503 1.204 4.153 3.736 8.37 7.473 12.585 11.273 4.468-3.99 8.872-7.917 13.34-11.907-.126-.063-.189-.063-.315-.126.063-.824.126-1.647.252-2.47.126-.127.189-.254.314-.38 4.342-3.863 8.747-7.727 13.089-11.59.188-.19.377-.507.377-.76.063-.76 0-1.52 0-2.28.063-.127.189-.19.252-.317 4.404-3.863 8.746-7.789 13.151-11.653.189-.19.314-.506.377-.76.063-.823.126-1.583.126-2.406l.378-.38 13.591-11.97c-.189-.443-.44-.823-.377-1.077.503-1.52-.63-2.09-1.511-2.85-.251-.253-.566-.506-.818-.76-3.586-3.229-7.173-6.396-10.822-9.626-3.839 3.483-7.677 6.84-11.452 10.26-.944.823-2.077 1.52-1.574 3.103.126.317-.188.823-.251 1.203l-.315.317c-3.901 3.483-7.802 6.967-11.767 10.45-.943.823-1.95 1.456-1.447 2.976.126.317-.126.824-.251 1.204-.126.253-.252.38-.378.443zm27.938-210.262l-.378.38c-4.404 3.99-8.872 7.916-13.025 11.653a74.927 74.927 0 0 1-.377 2.977l-.378.38c-4.153 3.673-8.306 7.41-12.459 11.083-.503.443-1.006.76-.755 1.646.189.57-.126 1.267-.251 1.9-.126.064-.252.19-.315.254l-12.836 11.4c-.252.253-.504.633-.504 1.013-.063.76-.063 1.52-.063 2.28-.126.063-.188.19-.314.253a2062.613 2062.613 0 0 0-12.71 11.336c-.315.317-.567.824-.693 1.267-.189.76-.189 1.52-.252 2.28-.126.127-.188.253-.314.38-4.28 3.8-8.558 7.536-12.774 11.336-.692.634-.629 3.04.126 3.674a224.33 224.33 0 0 0 4.216 3.736l8.306 7.41c4.467-3.99 8.872-7.853 13.025-11.59.126-1.203.189-2.09.315-2.976l.314-.317 12.837-11.4a2 2 0 0 0 .503-.95c.126-.76.063-1.52.126-2.28.126-.126.189-.253.314-.316 4.342-3.864 8.621-7.663 12.963-11.527.251-.19.44-.57.503-.886.063-.76.063-1.52.063-2.28.063-.127.189-.19.252-.317 4.341-3.863 8.683-7.663 13.025-11.59.252-.19.377-.633.44-.95.126-.76.189-1.52.252-2.28.126-.126.189-.253.315-.38 4.278-3.8 8.62-7.6 12.899-11.4.189-.19.315-.57.315-.886.125-.76.125-1.52.188-2.28l.378-.38c4.342-3.8 8.746-7.6 12.962-11.526.566-.507.566-2.597.063-3.104-4.153-3.926-8.495-7.726-12.836-11.526-.567.507-1.133.95-1.636 1.393-3.398 3.04-6.859 6.08-10.257 9.183-.755.634-1.762 1.14-1.133 2.534.063.316-.314.886-.44 1.393zM27.757 253.201c4.216-3.8 8.369-7.473 12.459-11.21.315-.253.566-.696.63-1.076.125-.697 0-1.457 0-2.28-4.28-3.8-8.684-7.727-13.152-11.653-3.838 3.42-7.613 6.776-11.389 10.133-1.007.886-2.265 1.583-1.699 3.293.126.317-.126.697-.126.95 4.468 3.99 8.81 7.853 13.277 11.843zM111.32 13.743c.063.57.315 1.14.189 1.52-.314.95.189 1.393.755 1.963 4.09 3.61 8.117 7.22 12.27 10.957 4.279-3.863 8.558-7.663 12.837-11.463.377-.317.314-2.977-.126-3.294-4.216-3.8-8.495-7.536-12.774-11.4-4.341 3.927-8.746 7.79-13.151 11.717zM41.6 268.147c3.65-3.229 7.236-6.459 10.886-9.689 1.259-1.077 2.832-2.027 2.202-4.117-.125-.317-.125-.823-.314-1.013-4.216-3.8-8.432-7.537-12.71-11.4-4.468 3.99-8.873 7.917-13.215 11.78.063.57.378 1.076.19 1.456-.441 1.077.25 1.584.88 2.154 3.964 3.61 7.928 7.22 12.081 10.829zm82.933-86.131c-4.53 3.99-8.935 7.98-13.151 11.716.063.824.063 1.457.126 2.027.063.317.126.823.315 1.013 4.216 3.8 8.432 7.537 12.71 11.4 4.279-3.8 8.558-7.6 12.774-11.4.566-.506.377-2.976-.189-3.483-4.153-3.736-8.306-7.473-12.585-11.273zm-68.649 41.862c.126.254.315.57.252.76-.63 2.09 1.07 2.787 2.202 3.864.44.38.88.823 1.321 1.203 3.147 2.787 6.293 5.637 9.502 8.423 4.341-3.863 8.557-7.6 12.836-11.4.189-.19.315-.57.315-.886.063-.697 0-1.457 0-2.154-4.342-3.863-8.747-7.726-13.151-11.653-4.405 3.927-8.81 7.854-13.277 11.843zm96.336-71.818c-.252.19-.567.443-.818.633l-11.704 10.45c-.881.76-.881 3.103 0 3.863 4.153 3.674 8.306 7.41 12.522 11.147 3.712-3.293 7.425-6.587 11.074-9.88 1.07-.95 2.517-1.647 2.014-3.673-.126-.57-.126-1.014-.567-1.457-4.215-3.673-8.305-7.41-12.521-11.083zm-82.996-33.946c4.467-3.927 8.872-7.916 13.088-11.653 0-.823.063-1.457 0-2.09-.063-.38-.126-.823-.44-1.077-4.216-3.8-8.432-7.536-12.648-11.336a1327.593 1327.593 0 0 0-13.151 11.716v2.724c4.279 3.863 8.683 7.726 13.15 11.716zm55.309-26.093a1972.028 1972.028 0 0 0-12.458 11.083c-.944.824-.944 3.167 0 4.054 4.09 3.673 8.243 7.346 12.395 11.083l13.214-11.78c-.063-.507-.377-1.013-.188-1.33.566-1.267-.378-1.71-1.007-2.343a632.375 632.375 0 0 0-11.956-10.767zm-27.623 30.02c-4.342 3.863-8.62 7.663-12.836 11.463-.19.19-.315.506-.315.76-.063.76 0 1.52 0 2.216 4.405 3.864 8.746 7.79 13.151 11.717 4.468-3.927 8.872-7.853 13.151-11.717-.063-.76-.063-1.393-.126-1.963-.063-.38-.126-.887-.377-1.14-4.153-3.8-8.369-7.536-12.648-11.336zm42.096 104.371c4.341 3.863 8.746 7.79 13.151 11.716 4.216-3.736 8.494-7.536 12.71-11.336.567-.507.504-3.04-.126-3.61-2.202-1.964-4.467-3.99-6.669-5.953-1.951-1.774-3.965-3.484-5.915-5.257-4.279 3.8-8.495 7.537-12.648 11.21-.252.253-.44.633-.503.95-.063.823 0 1.583 0 2.28zm13.151-78.279c4.216-3.736 8.432-7.473 12.584-11.209.252-.254.693-.57.63-.824-.189-1.456.063-3.103-1.699-3.863-.378-.19-.692-.57-1.07-.887a1572.475 1572.475 0 0 0-10.508-9.309c-4.342 3.8-8.621 7.599-12.837 11.399-.188.19-.377.57-.377.887 0 .76.063 1.52.063 2.217 4.467 3.8 8.809 7.663 13.214 11.589zm-82.304 33.25c4.405 3.926 8.81 7.853 13.214 11.716 4.467-3.99 8.872-7.853 13.214-11.716-.063-.57-.315-1.077-.126-1.52.377-1.014-.189-1.457-.881-2.027-2.832-2.47-5.663-5.003-8.432-7.473-1.258-1.14-2.517-2.217-3.775-3.357-3.838 3.42-7.614 6.777-11.39 10.133-1.006.887-2.139 1.647-1.698 3.294.063.316-.063.633-.126.95zM40.783 58.645c-4.342-3.863-8.684-7.726-13.026-11.653-3.964 3.547-7.928 7.094-11.892 10.577-.755.696-1.636 1.266-1.196 2.533.189.507-.063 1.267.189 1.583 4.216 3.864 8.558 7.663 12.836 11.463 4.216-3.8 8.432-7.473 12.585-11.273.315-.253.377-.823.44-1.266.126-.57.063-1.267.063-1.964zm28.44 213.366c-4.467 3.99-8.871 7.916-13.087 11.653v2.09c0 .316.063.76.251.886 4.28 3.8 8.558 7.6 12.837 11.463 4.467-3.989 8.872-7.853 13.214-11.779-.063-.444-.315-.95-.19-1.267.441-1.33-.44-1.9-1.195-2.597-3.9-3.356-7.802-6.903-11.83-10.449zM27.758 167.006c-4.09 3.61-8.054 7.157-12.018 10.703-1.51 1.394-1.51 3.357 0 4.75.252.254.566.507.818.76 3.712 3.294 7.488 6.65 11.2 10.007 3.838-3.42 7.614-6.84 11.39-10.133 1.069-.887 2.139-1.71 1.635-3.357-.063-.253.063-.633.126-.887a796.583 796.583 0 0 0-13.15-11.843zm55.31 30.02a2259.363 2259.363 0 0 0-12.585 11.209c-.251.254-.566.634-.566.95 0 2.28 0 2.28 1.762 3.8 2.076 1.9 4.216 3.737 6.292 5.574a378.817 378.817 0 0 0 5.16 4.559c4.342-3.863 8.557-7.599 12.71-11.336.44-.443.44-2.977 0-3.42-4.279-3.8-8.494-7.536-12.773-11.336zm27.623 89.994c-4.467 3.99-8.872 7.917-13.15 11.653v2.787c4.341 3.863 8.683 7.727 13.15 11.716 4.468-3.926 8.872-7.916 13.214-11.779-.063-.57-.377-1.14-.189-1.52.378-.95-.125-1.394-.755-1.9-4.027-3.673-8.117-7.283-12.27-10.957zm13.843-48.892c4.342-3.8 8.621-7.6 12.837-11.336.189-.19.314-.507.377-.76 0-.76-.063-1.52-.126-2.407-4.215-3.8-8.62-7.663-13.088-11.653-4.278 3.8-8.557 7.6-12.836 11.463-.503.443-.315 2.977.252 3.483 4.153 3.737 8.306 7.41 12.584 11.21zM42.167 118.811c.125.57.377 1.076.251 1.393-.44 1.013.19 1.457.818 2.027 4.028 3.61 8.055 7.22 12.145 10.893 4.467-3.927 8.872-7.917 13.15-11.717 0-.823.063-1.456 0-2.153 0-.317-.125-.697-.314-.887-4.216-3.8-8.495-7.599-12.773-11.463-4.531 4.117-8.936 8.043-13.277 11.907zM55.38 287.02c-3.65 3.23-7.174 6.397-10.76 9.564-1.259 1.139-2.958 2.026-2.266 4.179.126.317.126.824.315 1.014 4.216 3.8 8.432 7.6 12.71 11.399 4.468-3.989 8.873-7.916 13.089-11.653v-2.85c-4.28-3.799-8.62-7.726-13.088-11.653zm-.567-240.661c-.063-.57-.314-1.077-.188-1.457.44-1.076-.252-1.52-.944-2.153-2.203-1.963-4.405-3.99-6.67-6.017-1.825-1.583-3.65-3.166-5.538-4.813a1901.785 1901.785 0 0 1-12.71 11.527c-.189.19-.315.506-.315.76-.063.76 0 1.52 0 2.216 4.405 3.927 8.747 7.79 13.151 11.78 4.405-3.99 8.873-7.98 13.214-11.843zM14.606 91.451c4.279 3.8 8.684 7.727 13.151 11.653 4.279-3.863 8.62-7.663 12.837-11.463.188-.19.251-.506.251-.76.063-.696 0-1.456 0-2.153a19073.4 19073.4 0 0 1-13.15-11.716c-4.468 3.99-8.873 7.916-13.152 11.716.063.887.063 1.71.063 2.723zm40.208 252.315c-4.404-3.927-8.746-7.79-13.15-11.717-.252.19-.504.317-.756.507l-12.081 10.83c-.504.506-.378 3.04.189 3.546 4.153 3.737 8.369 7.474 12.584 11.21 3.965-3.483 7.866-7.03 11.83-10.513.755-.697 1.888-1.203 1.196-2.597-.19-.316.062-.823.188-1.266zm83.563-180.623c4.278-3.8 8.431-7.536 12.647-11.273.692-.633.629-3.04-.063-3.737a2295.59 2295.59 0 0 0-12.584-11.209 2310.17 2310.17 0 0 0-12.711 11.399c-.566.507-.44 2.977.126 3.484 4.09 3.8 8.306 7.536 12.585 11.336zM96.91 268.147c4.405-3.926 8.872-7.916 13.277-11.779-.063-.697-.126-1.267-.252-1.774-.126-.443-.126-1.076-.44-1.33-4.153-3.736-8.306-7.473-12.585-11.209-4.279 3.8-8.558 7.6-12.836 11.463-.19.19-.315.506-.315.76-.063.696 0 1.456 0 2.216 4.279 3.8 8.683 7.727 13.151 11.653zM41.6 62.002c-4.09 3.673-8.243 7.346-12.396 11.083-1.07.95-1.07 3.103 0 4.053 4.09 3.674 8.243 7.347 12.396 11.02 4.342-3.863 8.62-7.726 12.9-11.59.126-.126.251-.443.251-.633 0-.697-.063-1.393-.125-2.28-4.216-3.8-8.558-7.663-13.026-11.653zm56.002 56.619c0 .886-.063 1.456 0 2.09.063.38.126.823.315 1.013 4.216 3.8 8.432 7.6 12.71 11.4 4.468-3.99 8.873-7.917 13.088-11.717 0-.886.063-1.52 0-2.153 0-.317-.063-.76-.314-.95-4.216-3.8-8.495-7.6-12.774-11.4-4.404 4.054-8.809 7.98-13.025 11.717zm26.931 153.39c-4.341 3.863-8.62 7.726-12.962 11.589-.126.127-.377.38-.314.38.629 1.14-.504 2.914 1.384 3.61.377.127.692.57 1.007.887 3.586 3.23 7.236 6.46 10.822 9.69 4.279-3.8 8.495-7.6 12.711-11.337.252-.253.378-.633.44-1.013.063-.697 0-1.33 0-2.09-4.278-3.863-8.683-7.79-13.088-11.716zM83.067 287.02c-4.279 3.8-8.495 7.537-12.71 11.273-.252.19-.441.57-.441.887-.063.76 0 1.52 0 2.217 4.404 3.863 8.81 7.79 13.214 11.716 4.216-3.736 8.431-7.473 12.647-11.273.252-.253.315-.823.378-1.203.063-.634.063-1.267.126-1.9-4.468-3.927-8.81-7.79-13.214-11.717zM41.6 178.153c3.776-3.357 7.488-6.65 11.2-10.007 1.07-.95 2.518-1.71 1.826-3.546-.19-.444-.126-1.077-.441-1.33A2566.169 2566.169 0 0 0 41.6 151.997c-4.341 3.863-8.62 7.726-12.962 11.589-.377.38-.126 2.977.252 3.294 4.216 3.736 8.432 7.473 12.71 11.273zm41.467 78.848c-4.468 3.99-8.872 7.853-13.151 11.653v2.723c4.342 3.864 8.746 7.79 13.15 11.717 4.468-3.99 8.873-7.917 13.152-11.717v-2.786c-4.342-3.737-8.684-7.6-13.151-11.59zm-55.31 0c-3.838 3.42-7.614 6.713-11.389 10.07-1.007.95-2.265 1.71-1.699 3.483.063.253-.063.507-.126.823l13.214 11.78c4.468-3.99 8.872-7.916 13.088-11.716v-2.154c0-.316-.063-.696-.251-.886-4.28-3.737-8.495-7.537-12.837-11.4zm82.367 89.361c-.063-.633-.315-1.203-.189-1.646.252-.76-.063-1.14-.566-1.647a1938.308 1938.308 0 0 1-12.459-11.083c-4.279 3.8-8.558 7.537-12.773 11.336-.504.444-.44 2.977 0 3.42 4.215 3.8 8.494 7.537 12.773 11.337 4.405-3.863 8.872-7.853 13.214-11.717zm-40.9-18.239c4.341-3.863 8.62-7.663 12.899-11.527.126-.126.252-.443.252-.633v-2.217c-4.405-3.926-8.81-7.789-13.214-11.779-4.468 3.99-8.872 7.98-13.151 11.779.063.76.063 1.394.126 1.964.063.316.063.823.314 1.013 4.216 3.8 8.432 7.537 12.774 11.4zM96.91 151.997c-4.279 3.863-8.62 7.663-12.9 11.526-.44.38-.188 2.977.315 3.42 4.153 3.737 8.37 7.41 12.585 11.21 4.468-3.99 8.935-7.917 13.277-11.843-.126-.507-.378-1.014-.252-1.33.441-1.204-.314-1.71-1.07-2.344a1611 1611 0 0 1-11.955-10.639zm13.78-135.024c-4.279 3.8-8.557 7.663-12.836 11.463-.189.19-.315.507-.315.76 0 .697.063 1.393.126 2.28 4.216 3.737 8.558 7.663 13.025 11.653a3240.76 3240.76 0 0 0 13.088-11.716v-2.787c-4.216-3.736-8.62-7.663-13.088-11.653zm40.838 71.755c-4.342-3.863-8.747-7.79-13.151-11.716-3.776 3.356-7.488 6.713-11.264 10.006-1.069.95-2.391 1.773-1.825 3.547.063.253-.062.506-.125.823 4.404 3.927 8.746 7.79 13.214 11.78 4.467-3.927 8.872-7.853 13.151-11.653v-2.787zM123.967 151.3c-.126-.507-.377-1.013-.252-1.33.441-1.077-.188-1.583-.881-2.153-4.027-3.547-7.991-7.157-12.081-10.83-3.838 3.42-7.739 6.84-11.578 10.323-.88.76-2.14 1.393-1.447 2.977.189.443 0 1.266.315 1.52 4.153 3.8 8.368 7.536 12.71 11.336 4.405-3.99 8.809-7.916 13.214-11.843zm27.623 117.481c-4.404-3.927-8.809-7.79-13.213-11.78a2634.919 2634.919 0 0 0-12.774 11.463c-.189.19-.315.507-.315.76-.062.697 0 1.457 0 2.217 4.342 3.863 8.747 7.79 13.151 11.716 3.713-3.293 7.363-6.523 10.949-9.753 1.196-1.077 2.706-1.9 2.14-3.99-.126-.19 0-.443.062-.633zM55.38 317.04c-4.467 3.99-8.872 7.916-13.15 11.716.063.697.063 1.267.188 1.837.063.443.126 1.076.44 1.33 4.154 3.736 8.307 7.473 12.586 11.273 4.467-3.927 8.872-7.917 13.15-11.717v-2.786c-4.341-3.8-8.746-7.727-13.213-11.653zM68.658 58.709c-4.404-3.927-8.809-7.79-13.276-11.717-4.405 3.927-8.873 7.917-13.151 11.717.063.76.063 1.33.125 1.9.063.443.126 1.013.44 1.266 4.154 3.737 8.37 7.474 12.586 11.21.44-.38.88-.697 1.258-1.077 3.587-3.166 7.11-6.396 10.697-9.563.755-.633 1.636-1.14 1.07-2.406-.126-.254.188-.824.251-1.33zm.567-56.682a2513.744 2513.744 0 0 0-13.277 11.78c.063.506.377 1.076.189 1.456-.315.95.125 1.393.755 1.963 4.09 3.61 8.18 7.22 12.27 10.893 4.404-3.926 8.872-7.853 13.214-11.716-.063-.57-.315-1.077-.189-1.457.377-1.013-.189-1.52-.881-2.153-3.964-3.547-7.928-7.156-12.081-10.766zm69.153 191.135a2324.53 2324.53 0 0 0 12.773-11.399c.189-.19.378-.444.378-.634-.063-1.456.062-3.103-1.636-3.863-.252-.127-.504-.443-.693-.633-3.586-3.167-7.173-6.397-10.822-9.563-3.776 3.356-7.488 6.65-11.201 9.943-1.132.95-2.391 1.836-1.888 3.673.063.253-.125.507-.125.76 4.404 3.863 8.746 7.79 13.214 11.716zm-69.153 15.01c4.278-3.8 8.557-7.6 12.773-11.4.44-.38.44-2.976.063-3.293l-12.836-11.4c-4.468 3.99-8.935 7.917-13.277 11.78.126.57.377 1.077.189 1.393-.44 1.077.251 1.52.88 2.154 4.09 3.483 8.055 7.093 12.208 10.766zm-55.31 0c4.279-3.8 8.558-7.6 12.836-11.463.19-.19.252-.507.315-.823.063-.697 0-1.457 0-2.154-4.342-3.863-8.746-7.789-13.15-11.716-4.468 3.99-8.936 7.917-13.215 11.716v2.66c4.405 3.864 8.746 7.79 13.214 11.78zm0 63.839c-3.712 3.293-7.362 6.586-11.074 9.88-1.196 1.013-2.706 1.899-2.014 3.926.126.317.126.823.315 1.013 4.215 3.8 8.494 7.6 12.71 11.4 4.279-3.8 8.495-7.536 12.71-11.273.63-.57.567-2.977-.062-3.61-4.153-3.8-8.306-7.536-12.585-11.336zM68.532 28.689c-4.342-3.8-8.747-7.726-13.151-11.653-4.53 3.99-8.935 7.917-13.151 11.653.063 1.014.063 1.837.125 2.787 4.216 3.737 8.558 7.663 13.026 11.653 4.404-3.926 8.872-7.853 13.15-11.716v-2.724zm1.384 60.04v2.786c4.279 3.8 8.683 7.726 13.15 11.653 4.09-3.61 8.118-7.22 12.145-10.83 1.384-1.267 1.384-3.293 0-4.497-.189-.19-.377-.38-.63-.57l-11.514-10.26c-4.468 3.99-8.872 7.854-13.151 11.717zm40.774 138.253c-4.279 3.8-8.557 7.6-12.773 11.399-.252.19-.315.634-.315 1.014a4.71 4.71 0 0 0 0 1.33c.063.316.063.823.315 1.013 4.216 3.8 8.432 7.537 12.773 11.4 4.468-3.99 8.872-7.917 13.088-11.717v-2.723c-4.278-3.863-8.62-7.726-13.088-11.716zm-68.398 14.503c4.342 3.863 8.684 7.726 13.089 11.653 4.467-3.927 8.872-7.917 13.088-11.653 0-.887.063-1.52 0-2.154 0-.316-.126-.696-.378-.886-4.216-3.8-8.432-7.6-12.71-11.4-4.468 3.99-8.873 7.98-13.089 11.716v2.724z"/>
    <path fill="#000" d="M42.481.063c-.126.444-.189.95-.314 1.394l-.315.316c-4.216 3.8-8.495 7.537-12.71 11.337-.881.823-.944 3.103-.063 3.926 3.523 3.167 7.047 6.27 10.508 9.437.629.57 1.132 1.266 1.762 1.9l-.19.19c-.377-.254-.88-.444-1.195-.76-4.027-3.547-8.117-7.157-12.144-10.703-4.027 3.356-7.802 6.84-11.704 10.196-.944.823-1.887 1.52-1.447 3.04.126.317-.189.823-.252 1.203l-.377.38c-4.279 3.864-8.62 7.664-12.9 11.463-.188.19-.377.507-.377.76-.063.824 0 1.584 0 2.407l-.378.38c-.314-1.9-.629-3.61 1.259-5.193 3.964-3.357 7.802-6.903 11.578-10.323v-2.787c-3.838-3.42-7.74-6.966-11.704-10.386C.385 17.226-.118 16.213.197 14.756c.063-.253 0-.57 0-.823 1.07.19.692.95.755 1.647 0 .38.063.886.314 1.14 4.216 3.8 8.495 7.536 12.71 11.336 4.28-3.8 8.559-7.6 12.837-11.336.44-.38.44-2.977.063-3.357L14.04 1.963c-3.21 2.85-6.355 5.7-9.502 8.487A115.845 115.845 0 0 1 .26 13.996c.251-.506.377-1.203.755-1.583A878.81 878.81 0 0 1 12.467 2.217c.755-.634 1.195-1.204.629-2.154h1.636c-.377 1.014.126 1.647.88 2.28C19.64 5.89 23.668 9.5 27.758 13.11c4.468-3.99 8.872-7.917 13.277-11.843A28.967 28.967 0 0 0 40.845 0c.504.063 1.07.063 1.636.063zM165.748 313.303H166v3.863c-2.957 2.534-5.852 5.13-8.809 7.664-1.196 1.076-2.391 2.153-3.65 3.166-.503.443-1.07.76-.629 1.71.189.443-.063 1.077-.126 1.647 4.342 3.926 8.746 7.853 13.151 11.779v3.864a2212.51 2212.51 0 0 1-13.277 11.716c.126.507.252.887.378 1.267h-1.636c.314-1.077-.189-1.647-1.007-2.344a1649.961 1649.961 0 0 1-12.081-10.766c-2.454 2.153-4.845 4.307-7.237 6.46-1.636 1.457-3.209 2.976-4.908 4.37-.755.633-1.132 1.33-.943 2.28h-1.636c.125-.444.251-.95.314-1.394.063-.126.189-.19.252-.316 4.342-3.863 8.746-7.663 13.025-11.527.252-.19.315-.696.378-1.013.125-.76.188-1.52.251-2.28.126-.127.252-.253.315-.38.944-.823 1.951-1.647 2.894-2.533 3.084-2.723 6.23-5.447 9.25-8.233.441-.38.818-1.014 1.007-1.584.189-.696.126-1.52.189-2.28l.377-.38c4.342-3.799 8.684-7.663 13.025-11.463a1.17 1.17 0 0 0 .315-.76c.063-.823.126-1.583.126-2.406.252 0 .314-.064.44-.127zm-.377 33.123c-.063-.76-.063-1.394-.126-2.027-.063-.38-.063-.823-.315-1.013-4.216-3.8-8.494-7.6-12.773-11.4-4.279 3.8-8.558 7.6-12.774 11.4-.188.19-.314.57-.314.886-.063.697 0 1.457 0 2.154 4.341 3.863 8.746 7.79 13.151 11.716 4.404-3.926 8.809-7.853 13.151-11.716zM152.786 61.559c2.391 2.026 4.719 4.053 7.047 6.08 2.077 1.836 4.09 3.673 6.167 5.51v2.786h-.315l-.566-2.09c-3.335-3.357-7.047-6.587-10.634-9.816-.692-.634-1.321-1.457-1.951-2.154.063-.126.126-.19.252-.316zM41.034 118.621c-.566-.444-1.195-.824-1.699-1.33-3.838-3.42-7.614-6.903-11.452-10.323.126-.127.252-.254.315-.38.251.126.629.19.818.38 4.027 3.546 7.99 7.156 12.018 10.703.189.126.252.38.378.57l-.378.38zM152.723 1.583c.566.38 1.133.76 1.636 1.204 3.524 3.166 7.111 6.27 10.571 9.436.378.38.567.95.818 1.457-.377-.19-.755-.254-1.069-.507a1941.196 1941.196 0 0 1-11.767-10.45c-.252-.253-.378-.57-.566-.886a1.3 1.3 0 0 1 .377-.254zM97.35 211.402c2.58 2.28 5.16 4.497 7.803 6.777 1.51 1.33 2.957 2.596 4.405 3.926.314.317.566.76.881 1.14-.063.063-.126.063-.189.127-.315-.127-.755-.127-1.007-.38a871.587 871.587 0 0 1-11.39-10.133c-.314-.317-.502-.824-.691-1.204.125-.063.188-.126.188-.253zM151.653 28.626c-.188-.127-.44-.19-.566-.317-4.027-3.61-8.117-7.22-12.144-10.83-.189-.126-.315-.38-.441-.506.126-.127.252-.253.315-.38.252.127.503.127.692.317 4.027 3.61 8.117 7.156 12.144 10.766.189.127.252.38.378.57l-.378.38zM138.817 106.588c.252.126.629.19.818.38 4.027 3.546 8.054 7.156 12.018 10.703.189.126.252.38.378.57l-.378.38c-1.321-1.077-2.642-2.09-3.838-3.23-3.146-2.787-6.229-5.637-9.313-8.423.063-.127.189-.254.315-.38zM83.507 16.593c.378.253.818.38 1.133.697l10.949 9.69c.44.38.755.886 1.132 1.33l-.377.38c-1.51-1.33-3.084-2.597-4.594-3.927-2.894-2.534-5.726-5.13-8.62-7.727.126-.19.252-.316.377-.443zM42.167 271.504c3.712 3.23 7.425 6.523 11.074 9.753.692.633 1.259 1.393 1.888 2.027-.126.126-.189.253-.315.316-3.209-2.786-6.418-5.573-9.564-8.359-.881-.76-1.762-1.584-2.643-2.407-.315-.317-.503-.697-.755-1.077.126-.063.189-.126.315-.253zM138.817 46.549c1.133.95 2.391 1.837 3.461 2.787 3.083 2.66 6.103 5.383 9.124 8.106.251.19.377.507.566.697l-.378.38c-.503-.317-1.006-.634-1.384-1.014-3.964-3.546-7.865-7.093-11.767-10.64.126-.063.252-.19.378-.316zM28.198 286.64c.251.127.629.127.818.317 4.027 3.547 8.054 7.157 12.081 10.767.189.126.252.38.377.57l-.377.38c-.566-.444-1.133-.76-1.636-1.267-3.901-3.483-7.74-6.967-11.578-10.45l.315-.317zM83.507 46.549c.881.697 1.825 1.33 2.643 2.09 3.21 2.786 6.355 5.636 9.564 8.486.378.317.693.76 1.007 1.077l-.377.38c-1.573-1.33-3.21-2.533-4.72-3.926-2.831-2.534-5.663-5.13-8.494-7.727l.377-.38zM41.978 211.465c.314.19.63.317.944.57 3.901 3.484 7.865 6.967 11.766 10.45.19.19.315.507.504.76-.126.063-.189.19-.315.253-.252-.126-.566-.253-.818-.443-3.775-3.356-7.613-6.776-11.389-10.133-.378-.317-.503-.823-.818-1.267.063-.063.126-.126.126-.19z"/>
    <path fill="#000" d="M165.497 313.493c-.567-.38-1.133-.697-1.636-1.077-3.587-3.166-7.174-6.396-10.76-9.563-.315-.253-.567-.633-.818-.886.125-.064.188-.19.314-.254.378.127.755.254 1.07.444 3.901 3.42 7.739 6.84 11.578 10.323.252.253.377.57.566.886-.189 0-.252.064-.314.127zM.637 166.753c.315.127.692.19.944.38l12.27 11.02c-.126.19-.252.316-.377.506-.63-.443-1.259-.886-1.825-1.393-3.524-3.103-6.985-6.206-10.508-9.31-.252-.316-.378-.823-.504-1.203zM.7 136.607c.692.57 1.447 1.077 2.14 1.71 3.712 3.293 7.425 6.65 11.137 9.943l-.378.38c-.377-.19-.755-.253-1.07-.507L1.016 137.874c-.252-.254-.44-.57-.63-.824.063-.253.19-.38.315-.443zM69.727 151.49c.63.507 1.322.95 1.888 1.52 3.586 3.167 7.173 6.333 10.76 9.563.189.19.377.38.503.633-.126.127-.252.254-.377.317-.252-.127-.63-.19-.819-.38l-11.892-10.64c-.189-.19-.315-.443-.503-.633.188-.127.314-.253.44-.38zM68.657 178.659c-4.278-3.736-8.494-7.536-12.773-11.273-.126-.126-.189-.38-.315-.57.126-.126.252-.253.378-.316 2.265 1.963 4.593 3.926 6.859 5.953 2.139 1.9 4.216 3.8 6.355 5.7-.189.19-.315.38-.504.506zM.7 316.596c1.51 1.33 3.083 2.597 4.594 3.927 2.894 2.533 5.726 5.13 8.62 7.726l-.377.38c-.252-.126-.63-.19-.819-.38C8.692 324.64 4.665 321.093.7 317.546c-.189-.126-.252-.38-.377-.57l.377-.38zM.637 346.552c1.196 1.014 2.454 2.027 3.65 3.104 3.209 2.85 6.355 5.7 9.501 8.549-.126.127-.252.317-.377.444-.252-.127-.504-.19-.692-.38A933.758 933.758 0 0 1 .952 347.756c-.252-.254-.44-.634-.63-.95.126-.064.19-.19.315-.254zM152.723 271.504c3.461 3.04 6.922 6.017 10.382 9.056a31.373 31.373 0 0 1 2.14 1.964c.252.316.377.76.566 1.14-.377-.19-.755-.254-1.07-.507l-11.703-10.45c-.252-.19-.315-.57-.504-.886.063-.127.126-.19.189-.317zM14.418 331.543c1.384 1.14 2.768 2.216 4.09 3.42 3.083 2.723 6.103 5.51 9.123 8.233l-.377.38c-.252-.127-.504-.19-.692-.317-4.027-3.546-7.992-7.093-12.019-10.64-.188-.19-.314-.443-.503-.633.126-.19.252-.317.378-.443zM97.413 271.504c2.203 1.9 4.405 3.737 6.544 5.637a468.75 468.75 0 0 1 5.727 5.129c.314.254.503.697.755 1.077-.126.127-.189.253-.315.38-3.083-2.723-6.229-5.383-9.313-8.17-1.321-1.203-2.58-2.47-3.838-3.673.189-.127.315-.253.44-.38zM96.344 118.621c-1.385-1.14-2.769-2.217-4.09-3.42-3.02-2.723-6.04-5.447-9.124-8.233.126-.127.189-.254.314-.38.315.126.693.253.944.506 3.964 3.484 7.929 7.03 11.83 10.513.189.19.252.444.44.697l-.314.317zM110.124 13.616c-3.146-2.723-6.292-5.446-9.439-8.233-.943-.823-1.95-1.71-2.831-2.596-.315-.317-.504-.697-.755-1.077.126-.127.251-.19.377-.317 4.216 3.737 8.495 7.473 12.711 11.21.126.127.189.38.252.57-.063.253-.189.38-.315.443zM69.727 331.543c1.447 1.203 2.957 2.406 4.342 3.673 2.957 2.66 5.915 5.32 8.81 7.98l-.378.38c-.252-.127-.63-.19-.818-.38a933.694 933.694 0 0 1-11.767-10.513c-.252-.19-.378-.507-.566-.76l.377-.38zM56.01 136.544c2.391 2.026 4.845 4.116 7.173 6.206a471.35 471.35 0 0 1 6.04 5.447l-.377.38c-.314-.127-.692-.254-.944-.444L56.01 137.494c-.126-.127-.252-.38-.315-.57.063-.127.189-.254.315-.38zM55.947 346.552c1.699 1.394 3.398 2.787 5.034 4.244 2.768 2.406 5.474 4.876 8.18 7.346-.126.19-.252.317-.378.507l-2.454-1.9c-3.335-2.977-6.732-5.953-10.004-8.93-.252-.253-.441-.633-.63-.95.063-.127.126-.253.252-.317zM97.476 91.515c3.839 3.356 7.677 6.713 11.515 10.133.567.506 1.007 1.14 1.448 1.71-.126.126-.189.253-.315.316-4.216-3.736-8.495-7.41-12.71-11.146-.19-.127-.19-.443-.315-.697.189-.19.251-.253.377-.316zM69.727 241.548c.755.57 1.573 1.077 2.265 1.71l10.949 9.88-.377.38c-.441-.254-.881-.444-1.259-.76-3.775-3.357-7.55-6.713-11.263-10.07-.252-.253-.44-.57-.63-.823l.315-.317zM123.967 178.659c-3.65-3.229-7.362-6.459-11.012-9.689-.755-.634-1.384-1.457-2.013-2.154.126-.126.252-.19.315-.316.314.19.629.316.88.57 3.776 3.356 7.614 6.776 11.39 10.196.314.253.44.697.692 1.077a1.382 1.382 0 0 1-.252.316zM55.947 76.505c2.894 2.47 5.726 5.003 8.62 7.473 1.574 1.394 3.084 2.787 4.594 4.18-.126.19-.315.317-.44.507a503.118 503.118 0 0 1-6.419-5.574c-1.95-1.71-3.901-3.483-5.852-5.256-.314-.317-.503-.697-.818-1.077.063-.063.189-.19.315-.253zM137.873 253.518c-.315-.19-.692-.254-.944-.507-3.901-3.483-7.802-6.903-11.641-10.386-.251-.19-.377-.507-.566-.76l.315-.317c1.258 1.013 2.58 2.027 3.775 3.103a603.689 603.689 0 0 1 9.376 8.487c-.063.126-.189.253-.315.38zM54.814 13.616c-3.083-2.723-6.23-5.446-9.312-8.106a125.378 125.378 0 0 1-2.958-2.66c-.314-.317-.503-.697-.692-1.077l.315-.316c2.39 2.09 4.719 4.116 7.11 6.206l5.097 4.56c.314.317.503.697.755 1.077a.761.761 0 0 1-.315.316zM41.034 328.566c-.189-.063-.377-.063-.503-.19-4.216-3.8-8.495-7.6-12.71-11.463l.377-.38c.314.19.692.253.944.507 3.964 3.546 7.928 7.03 11.892 10.576.189.127.252.38.378.57-.19.127-.252.254-.378.38zM68.657 268.717c-4.215-3.736-8.494-7.473-12.71-11.273-.126-.126-.189-.38-.252-.57.126-.126.189-.253.315-.316 2.706 2.343 5.474 4.75 8.18 7.093 1.321 1.203 2.706 2.343 3.964 3.547.315.316.504.76.818 1.203a.76.76 0 0 0-.314.316zM125.037 61.495c1.384 1.14 2.831 2.28 4.153 3.484 3.02 2.723 6.04 5.446 8.998 8.17-.126.126-.189.253-.315.38-.377-.19-.755-.317-1.069-.57-3.902-3.42-7.74-6.904-11.641-10.387-.252-.19-.378-.507-.567-.76.189-.063.315-.19.441-.317zM125.1 301.65c.125 0 .314 0 .377.063 4.279 3.864 8.558 7.664 12.837 11.527l-.378.38c-.44-.254-.881-.507-1.258-.824-3.587-3.166-7.174-6.396-10.76-9.563-.441-.38-.818-.823-1.196-1.266.126-.127.252-.254.378-.317zM97.476 181.509c4.216 3.737 8.495 7.474 12.711 11.21.126.127.189.38.252.57-.126.127-.252.253-.315.38-3.901-3.42-7.803-6.84-11.704-10.323-.503-.443-.818-1.013-1.195-1.52.063-.127.126-.253.251-.317zM151.653 208.679c-1.573-1.33-3.146-2.597-4.656-3.927-2.831-2.533-5.663-5.13-8.495-7.726.126-.127.252-.254.315-.38.315.19.692.253.944.506 3.964 3.484 7.928 7.03 11.83 10.513.188.19.314.444.503.634a2.695 2.695 0 0 0-.441.38zM.7 226.602c.566.443 1.196.823 1.7 1.33 3.523 3.103 6.984 6.206 10.444 9.309.378.317.504.887.756 1.33-.315-.126-.693-.19-.944-.38-4.027-3.546-7.992-7.093-12.019-10.639-.126-.127-.189-.38-.314-.57l.377-.38zM138.817 316.533c1.133.887 2.328 1.773 3.398 2.723 3.083 2.724 6.166 5.447 9.187 8.234.251.19.377.506.629.696l-.378.38c-1.195-1.013-2.517-1.963-3.649-3.04-3.209-2.85-6.355-5.763-9.565-8.613l.378-.38zM.385 76.505c.315.127.63.127.818.317 4.216 3.736 8.432 7.536 12.648 11.273-.126.19-.315.316-.44.506l-10.194-8.93c-.755-.696-1.51-1.33-2.265-2.026-.315-.253-.44-.76-.567-1.14zM123.904 268.717c-3.775-3.356-7.614-6.713-11.389-10.069-.566-.507-1.07-1.204-1.636-1.774.126-.126.252-.19.378-.316 2.579 2.216 5.096 4.433 7.676 6.65 1.51 1.33 3.021 2.66 4.531 4.053.314.316.503.76.755 1.203-.126 0-.189.127-.315.253zM123.967 88.665c-4.279-3.737-8.495-7.537-12.71-11.273-.126-.127-.189-.38-.315-.57.126-.064.252-.19.315-.254a66.61 66.61 0 0 1 2.454 1.964c3.272 2.913 6.544 5.826 9.816 8.803.314.253.503.696.692 1.076-.126.064-.189.19-.252.254zM54.814 103.674a2025.615 2025.615 0 0 1-12.773-11.273c-.126-.126-.126-.38-.189-.633.063-.127.189-.19.252-.317l5.474 4.75c2.265 2.027 4.53 3.99 6.733 6.017.315.253.503.696.755 1.076 0 .127-.126.254-.252.38zM69.79 31.603c1.636 1.33 3.272 2.66 4.782 4.053 2.832 2.47 5.537 5.066 8.306 7.6l-.377.38c-.252-.127-.504-.19-.693-.38-4.027-3.547-8.054-7.157-12.08-10.703-.19-.127-.252-.38-.378-.57.188-.127.314-.254.44-.38zM152.66 181.699c.315.127.629.254.881.444 3.838 3.42 7.677 6.776 11.452 10.196.378.317.504.887.755 1.33-.44-.253-.944-.38-1.258-.697-3.776-3.356-7.614-6.713-11.389-10.133-.315-.253-.441-.696-.693-1.076.126 0 .189-.064.252-.064zM137.936 43.636c-.252-.127-.503-.19-.692-.38-4.027-3.61-8.054-7.157-12.081-10.767-.189-.126-.252-.38-.441-.506l.378-.38c.125 0 .314 0 .377.063l12.837 11.59-.378.38zM111.319 316.596c1.762 1.52 3.587 2.977 5.349 4.497 2.328 2.027 4.593 4.117 6.859 6.143.314.253.503.697.692 1.013a1.897 1.897 0 0 1-.441.317c-1.447-1.266-2.894-2.596-4.341-3.863a803.477 803.477 0 0 1-7.929-7.093c-.251-.19-.377-.507-.566-.76.126 0 .252-.127.377-.254zM96.344 328.566c-.126-.063-.315 0-.378-.126L83.13 316.85l.377-.38c.44.253.881.506 1.259.823 3.838 3.357 7.613 6.777 11.389 10.133.252.19.377.507.566.76-.126.19-.251.317-.377.38zM14.417 301.587c.378.253.818.443 1.133.696 3.838 3.42 7.677 6.84 11.515 10.197.252.19.44.443.63.696l-.378.38c-.692-.57-1.448-1.013-2.14-1.646-3.46-3.04-6.921-6.143-10.382-9.247a8.01 8.01 0 0 1-.692-.823c.063 0 .189-.127.314-.253zM42.104 181.509c4.027 3.547 8.117 7.094 12.144 10.703.378.317.63.76.881 1.14-.126.127-.189.254-.315.38-3.02-2.659-6.04-5.319-9.06-7.916a160.191 160.191 0 0 1-3.336-3.04c-.251-.19-.314-.57-.503-.887.063-.19.126-.316.189-.38zM111.257 346.489c2.894 2.47 5.726 5.003 8.62 7.473 1.259 1.077 2.454 2.217 3.65 3.357.314.253.44.697.692 1.077-.063.126-.189.19-.252.316-2.391-2.09-4.845-4.18-7.236-6.333-1.699-1.52-3.461-3.04-5.16-4.56-.314-.253-.44-.633-.692-.95l.378-.38zM165.434 103.674c-3.965-3.483-7.929-6.903-11.893-10.45-.44-.38-.692-.95-1.07-1.456.126-.063.189-.19.315-.253 3.712 3.293 7.488 6.523 11.2 9.816.63.57 1.196 1.33 1.762 1.963-.063.127-.189.254-.314.38zM27.317 43.636c-.692-.507-1.385-.95-2.077-1.52-3.586-3.167-7.11-6.333-10.634-9.5-.189-.19-.314-.443-.503-.633l.377-.38c.504.316 1.007.633 1.448 1.013 3.586 3.167 7.173 6.397 10.76 9.563.377.317.692.697 1.006 1.077l-.377.38zM28.135 136.607c.251.063.566.127.755.253 4.09 3.61 8.18 7.284 12.207 10.893.126.127.189.317.315.444-.126.126-.252.253-.315.38-.378-.254-.818-.444-1.133-.697-3.712-3.293-7.362-6.523-11.011-9.88-.44-.316-.567-.95-.818-1.393zM14.92 152.313c.316.064.693.064.882.254 3.964 3.546 7.865 7.093 11.83 10.639l-.378.38c-.315-.19-.692-.253-.944-.506-3.587-3.167-7.11-6.333-10.634-9.5-.378-.38-.503-.887-.755-1.267zM125.1 121.597c1.447 1.204 2.894 2.28 4.278 3.547a416.513 416.513 0 0 1 7.803 7.093c.377.317.503.887.755 1.33-1.51-1.203-3.083-2.407-4.53-3.736-2.958-2.597-5.789-5.257-8.684-7.917.126-.063.252-.19.378-.317zM125.037 331.543c.755.57 1.51 1.14 2.265 1.773 3.65 3.293 7.299 6.587 11.012 9.88-.126.127-.252.253-.315.38-1.07-.823-2.139-1.647-3.146-2.533-3.083-2.724-6.23-5.447-9.313-8.234-.315-.253-.566-.633-.818-.886.063-.127.189-.254.315-.38zM5.923 261.181c2.643 2.343 5.285 4.623 7.928 6.966-.126.19-.314.317-.44.507-2.643-2.343-5.223-4.686-7.866-7.03.126-.126.252-.253.378-.443zM97.476 61.559c1.322 1.14 2.58 2.343 3.902 3.483l-.378.38c-1.258-1.203-2.517-2.407-3.838-3.547.125-.126.251-.19.314-.316zM5.923 261.181c-.126.127-.252.253-.378.443-1.636-1.393-3.335-2.786-4.97-4.18-.19-.19-.127-.57-.19-.886.378.19.756.253 1.007.506 1.51 1.33 3.02 2.724 4.53 4.117z"/>
</svg>
