<svg xmlns="http://www.w3.org/2000/svg" width="31" height="3642" fill="none" viewBox="0 0 31 3642">
    <path stroke="#C4C4C4" stroke-linecap="round" stroke-linejoin="round" d="M26.866.5c-2.781 34.364-7.269 64.904-7.269 102.404 0 31.613.837 66.528-.1 97.749-2.292 76.297-4.45 137.111-1.313 215.67C24.582 576.562 30.5 735.129 30.5 898.863c0 49.655-3.616 118.737-6.36 166.537-1.976 34.43-.562 72.54-.908 108.09-.415 42.44-8.473 83.89-11.307 123.09-3.163 43.76-5.025 88.37-7.672 132.92-6.226 104.81-2.827 228.1-2.827 336.69 0 103.56 1.638 197.78 6.865 296.87 3.236 61.34 7.344 137.25 11.205 186.71 3.24 41.5.101 124.15.101 169.12v500.64c0 141.82-5.45 276.1-5.45 418.41v302.56"/>
</svg>
