<svg xmlns="http://www.w3.org/2000/svg" width="60" height="71" fill="none" viewBox="0 0 60 71">
    <path fill="#fff" d="M40.126 45.987a1.444 1.444 0 0 1-.131.3c-.019.037-.094.074-.131.056-.6-.225-1.198-.45-1.798-.656-.093-.037-.112-.093-.093-.187.3-1.18 1.31-3.558 1.591-4.737.225-.918.43-1.835.656-2.734.187-.768.393-1.536.58-2.303.244-.955.468-1.91.73-2.865a47.653 47.653 0 0 1 2.004-5.224c.374-.88.805-1.741 1.16-2.621.094-.244.225-.319.45-.356a78.142 78.142 0 0 0 2.078-.206c.113-.019.188.019.263.13.262.45.524.9.805 1.35.187.28.393.542.562.823.074.131.112.3.168.45.037.093.094.187.15.28.393.693.805 1.386 1.18 2.079.748 1.366 1.497 2.752 2.246 4.119.038.056.113.112.169.112.3.019.58.019.88.038.112 0 .15.037.15.168 0 .618.018 1.236.037 1.873 0 .075.019.168.056.243.431.843.88 1.685 1.33 2.51.487.898.973 1.797 1.441 2.714.75 1.423 1.498 2.846 2.247 4.27.113.205.113.205-.075.336-.524.375-1.048.768-1.572 1.143-.094.074-.15.037-.206-.038l-1.685-2.36c-.675-.935-1.33-1.872-2.004-2.808-.693-.974-1.386-1.947-2.097-2.92-.543-.75-1.067-1.48-1.61-2.229a.304.304 0 0 0-.262-.131 240.9 240.9 0 0 1-3.652.412c-.43.056-.861.093-1.31.13-.188.02-.206-.018-.15-.186.112-.244.224-.487.318-.75.3-.748.58-1.479.861-2.228v-.15c.02-.018.038-.018.038-.037-.019.019-.019.038-.038.038v.15c-.093.187-.168.374-.262.561-.374.88-.767 1.76-1.142 2.64-.412.974-.824 1.929-1.236 2.903-.655 1.535-2.022 4.25-2.677 5.767.037.056.018.093-.019.13.019 0 .019 0 0 0 0 .02 0 0 0 0v-.055h-.019c.019.018.019.037.019.056zm6.516-19.024s.019 0 0 0c.019 0 0 0 0 0s0-.019 0 0c0-.019 0 0 0 0zm-3.52 8.313c.037-.056.112-.093.131-.15.075-.261.075-.28.318-.28.206-.019.412-.075.58-.187.394-.281.806-.506 1.2-.787.149-.112.299-.168.505-.168 1.235.037 2.471.056 3.707.093.131 0 .262-.018.393-.018-.056-.132-.112-.244-.168-.375-.487-.918-.974-1.854-1.442-2.771-.374-.693-.693-1.423-1.18-2.06-.3-.393-.524-.88-.786-1.31-.038-.057-.075-.132-.112-.188-.075-.093-.132-.093-.188.038-.112.243-.224.468-.318.711-.43 1.03-.88 2.06-1.273 3.09a39.806 39.806 0 0 0-.88 2.509c-.206.599-.337 1.236-.487 1.853v0zm6.01 1.217l.225-.056c-.075-.018-.131-.018-.206-.018-.056 0-.112.018-.168.037.056.019.112.037.15.037zm-.412 0h.075c-.018 0-.037-.018-.056-.018-.056 0-.093 0-.15.018.038-.018.075-.018.131 0zm6.872 7.453c-.018-.019-.037-.019-.037-.019l-.019.019.019.019c.019 0 .019 0 .037-.02zM21.57 46.66l-4.175-.168c-.15 0-.281-.018-.431-.037a.445.445 0 0 1-.206-.112c-.45-.469-.88-.956-1.31-1.424-.282-.3-.525-.655-.825-.917-.205-.187-.205-.375-.187-.618.075-.674.131-1.33.188-2.003l.28-2.996c.075-.824.131-1.648.206-2.49l.337-3.745c.075-.918.131-1.817.225-2.734.075-.787.15-1.573.243-2.36a.667.667 0 0 1 .319-.524 213.57 213.57 0 0 0 3.389-2.265c.206-.15.412-.188.655-.169.955.056 1.929.112 2.884.169.13 0 .187.056.168.187-.018.224-.037.45-.037.674a.3.3 0 0 0 .094.206c.73.637 1.441 1.31 2.209 1.91.412.318.43.749.543 1.16.206.75.374 1.517.543 2.266.356 1.667.73 3.314 1.011 4.98.206 1.2.337 2.398.45 3.615.13 1.479.187 2.958.337 4.419.037.43-.057.674-.375.955-.524.468-.992 1.01-1.498 1.535l-.562.562c-.056.056-.168.075-.243.075-1.105-.038-2.21-.094-3.333-.15-.3-.019-.58 0-.88 0h-.019zm-1.779-22.244c-.056.094-.13.188-.168.3-.262.6-.506 1.217-.75 1.816-.205.506-.411 1.03-.617 1.536-.019.056 0 .15 0 .224.019.056.075.131.056.188-.056.767-.13 1.554-.187 2.321l-.225 2.94c-.15 1.76-.28 3.52-.45 5.28-.13 1.573-.28 3.127-.43 4.681-.018.113 0 .169.131.169.487 0 .974.019 1.48.037l6.984.281c.187 0 .262-.037.243-.224-.075-.806-.131-1.63-.187-2.435-.075-1.067-.15-2.134-.244-3.202a19.347 19.347 0 0 0-.168-1.46c-.113-.73-.262-1.48-.412-2.21-.15-.73-.28-1.441-.45-2.172a88.677 88.677 0 0 0-.524-2.134c-.206-.861-.412-1.741-.618-2.603.038-.224.113-.412.225-.58-.037 0-.056-.038-.093-.019-.132.019-.263.131-.338-.075a11.907 11.907 0 0 0-1.404-.15c-.468-.056-.936-.15-1.423-.206-.374-.037-.73-.037-1.105-.056-.224 0-.262-.037-.168-.262.3-.655.561-1.33.842-1.985 0-.018 0-.018 0 0 0-.018 0 0 0 0zM35.501 34.808c-.168 2.453-.356 4.925-.524 7.378-.019.3-.019.618-.075.898-.169.918.019 1.835.019 2.772 0 .337.018.674.037.992 0 .112-.037.169-.168.15-.113 0-.225-.019-.244.13 0 .02-.075.038-.112.038-.6 0-1.18 0-1.779.02-.15 0-.206-.057-.225-.17-.13-.898-.243-1.778-.374-2.677-.019-.15.037-.187.187-.206.356-.019.356-.019.337-.337-.037-1.086-.093-2.172-.13-3.258l-.113-2.49c-.056-.993-.113-2.004-.15-2.996-.037-.768-.056-1.536-.094-2.322l-.168-3.726c-.056-.992-.094-1.966-.15-2.959-.019-.3.075-.505.356-.692.543-.375 1.048-.787 1.554-1.199a.42.42 0 0 1 .599.075c.262.3.562.58.843.88.318.337.636.655.955.993.056.056.075.168.056.243-.075 1.18-.169 2.34-.262 3.52-.131 1.63-.262 3.277-.394 4.906-.018.037 0 .037.02.037zm-1.498-6.104v-.355c0-.02 0-.038-.019-.038v.038c0 .112 0 .224.02.355.018.244.018.487.037.73 0 .02.018.038.018.057 0-.019.02-.019.02-.038-.038-.243-.057-.505-.076-.749zm-.019-2.06h.02c.018-.187.037-.374.037-.561 0-.075 0-.169-.113-.15-.037 0-.093.094-.093.15.018.45.056.899.093 1.348v.056c0-.018.019-.037.019-.056.019-.28.019-.524.037-.786zm.45 10.056c0 .168.019.337.019.505 0 .019.018.038.018.056v-.037c0-.169-.018-.337-.018-.487 0-.038-.02-.056-.02-.094v.056zm.019-.375c0-.056-.02-.131-.02-.187 0 .019-.018.037-.018.056 0 .075.019.131.019.206 0-.019 0-.056.019-.075zm-.038-.468V35.8c0 .018-.019.018-.019.037v.056c0-.018.02-.037.02-.037zm-.43-7.827v-.037l-.02.019v.037c.02 0 .02-.019.02-.019zm.524 9.662c-.019 0-.019 0 0 0-.019 0-.019 0 0 0-.019.019-.019 0 0 0zm-.43-7.883c0-.019 0-.019 0 0 0-.019 0-.019 0 0 0-.019 0-.019 0 0zM3.745 25.633v1.255c.037 1.48.075 2.958.093 4.438 0 .224.075.28.281.3l2.49.168c1.292.093 2.584.168 3.876.262.693.056 1.386.094 2.079.13.15 0 .168.057.168.188l-.168 1.966c-.019.169-.094.206-.225.188l-3.97-.281c-1.422-.113-2.827-.206-4.25-.319-.112 0-.187-.018-.187.15.037 1.03.094 2.041.131 3.07.037 1.349.056 2.697.094 4.045.037 1.573.093 3.165.15 4.738 0 .15-.02.206-.188.206-.58 0-1.16.018-1.741.037-.15 0-.15-.075-.15-.169l-.112-3.464-.225-6.89c-.019-.543-.056-1.105-.056-1.648 0-.243-.075-.43-.225-.636-.524-.674-1.048-1.33-1.554-2.004-.037-.037-.037-.131-.037-.187l.449-2.584c.056-.281.112-.562.168-.824.02-.112.057-.225.206-.206.038 0 .057-.019.094-.037-.019-.02-.056-.02-.075-.038-.019-.019-.056-.019-.075-.037.019-.019.019-.056.056-.075.132-.131.281-.244.412-.375.487-.543.955-1.104 1.442-1.629.3-.468.674-.842 1.124-1.123v1.423c-.038-.038-.057-.038-.075-.038z"/>
    <path fill="#fff" d="M12.114 25.933c-.168.038-.337.056-.486.094-1.03.15-2.041.3-3.071.43-1.517.206-3.033.375-4.55.58-.169.02-.187-.037-.187-.186-.543-1.199-.45-2.135.28-2.79.6-.038 1.218-.094 1.817-.131 2.172-.113 4.363-.206 6.535-.319.093 0 .168 0 .262-.018.468 0 .374-.038.412.393.056.543.093 1.104.13 1.648.02.112-.018.168-.15.187-.299.018-.598.056-.898.075-.037 0-.075 0-.112.018.019 0 .018.02.018.02zm-3.089.094c-.318.018-.6.037-.88.056-.019 0-.037.019-.056.019.3.075.599.075.917 0 .094 0 .169-.038.244-.057-.094 0-.169-.018-.225-.018zm-1.61.075c0-.02-.019-.02 0 0-.169 0-.337.018-.525.037-.018 0-.037.019-.056.019.019 0 .038.018.056.018.244 0 .487-.018.75-.018a.346.346 0 0 0 .13-.038.766.766 0 0 0-.355-.018zM32 11.89v8.332h-1.835v-4.157l-1.817 4.138.02.038h-1.873l.018-.038-1.853-4.212v4.231h-1.835v-8.426h1.835l2.771 6.292 2.734-6.217v-.075H32.037L32 11.89zM38.947 18.537H36.38l-.543 1.685h-1.835l2.753-8.426h1.835l2.752 8.426h-1.835l-.562-1.685zm-.544-1.685l-.73-2.247-.73 2.247h1.46zM50.649 20.222h-2.022l-2.303-3.127-1.18 1.442v1.685h-1.835v-8.426h1.835v4.307l3.483-4.307h2.022l-3.296 4.026 3.296 4.4zM54.45 13.481v1.686h3.67v1.685h-3.67v1.685H59v1.685h-6.385v-8.426H59v1.685h-4.55zM10.354 62.464l-1.722 8.127H6.909l-1.722-5.412-1.723 5.412H1.723L0 62.464h1.723l1.03 4.868 1.535-4.868H6.01l1.555 4.868 1.03-4.868h1.76zM19.586 66.565c0 2.453-1.423 4.213-4.007 4.213-2.622 0-3.989-1.76-3.989-4.213 0-2.416 1.423-4.213 3.989-4.213 2.565 0 4.007 1.797 4.007 4.213zm-1.704 0c0-1.48-.824-2.584-2.303-2.584-1.48 0-2.285 1.104-2.285 2.584 0 1.516.787 2.584 2.285 2.584 1.479 0 2.303-1.068 2.303-2.584zM24.828 67.351h-1.666v3.24h-1.723v-8.127h4.082c1.873 0 2.809 1.217 2.809 2.453 0 .955-.58 1.91-1.723 2.266l1.723 3.407H26.4l-1.573-3.239zm-1.666-1.629h2.34c.73 0 1.105-.412 1.105-.805 0-.393-.374-.805-1.105-.805h-2.34v1.61zM37.074 70.59h-1.91l-2.172-3.014-1.105 1.386v1.629h-1.722v-8.127h1.722v4.157l3.277-4.157h1.91l-3.108 3.895 3.108 4.232zM18.537 11.796H0v8.426h18.537v-8.426zM58.981 0H0v8.426h58.981V0zM58.981 50.556H0v8.425h58.981v-8.425zM58.981 62.352H40.444v8.426h18.537v-8.426z"/>
</svg>
