<svg xmlns="http://www.w3.org/2000/svg" width="100" height="120" fill="none" viewBox="0 0 100 120">
    <path fill="#000" d="M68.01 77.944c-.063.19-.127.349-.222.507-.032.064-.159.127-.222.096-1.016-.381-2.031-.762-3.047-1.111-.158-.064-.19-.159-.158-.318.507-1.999 2.221-6.03 2.697-8.029.381-1.555.73-3.11 1.11-4.633.318-1.301.667-2.603.985-3.904.412-1.618.793-3.237 1.237-4.855a80.784 80.784 0 0 1 3.396-8.855c.635-1.491 1.365-2.951 1.968-4.443.158-.412.38-.54.761-.603 1.175-.095 2.349-.222 3.523-.349.19-.032.318.032.445.222.444.762.888 1.524 1.364 2.285.318.476.667.92.952 1.397.127.222.19.508.286.761.063.159.159.318.254.476.666 1.175 1.364 2.349 2 3.523 1.269 2.317 2.538 4.665 3.807 6.982.064.095.19.19.286.19.508.032.984.032 1.492.064.19 0 .253.063.253.285 0 1.048.032 2.095.064 3.174 0 .127.032.286.095.413.73 1.428 1.492 2.856 2.253 4.252.826 1.524 1.65 3.047 2.444 4.602l3.808 7.236c.191.349.191.349-.126.571-.89.635-1.778 1.301-2.666 1.936-.159.127-.254.063-.35-.064l-2.856-3.998c-1.142-1.587-2.253-3.174-3.395-4.76-1.175-1.65-2.349-3.301-3.555-4.951-.92-1.27-1.809-2.508-2.73-3.777a.515.515 0 0 0-.444-.222c-2.062.254-4.125.476-6.188.698-.73.095-1.46.159-2.222.222-.317.032-.349-.032-.253-.317.19-.413.38-.825.54-1.27.507-1.27.983-2.507 1.459-3.776v-.254c.032-.032.063-.032.063-.064-.031.032-.031.064-.063.064v.254c-.159.317-.286.635-.444.952-.635 1.492-1.302 2.983-1.936 4.475-.698 1.65-1.397 3.268-2.095 4.919-1.11 2.602-3.427 7.204-4.538 9.774.063.096.032.16-.032.222.032 0 .032 0 0 0 0 .032 0 0 0 0v-.095h-.032c.032.032.032.064.032.096zM79.054 45.7s.032 0 0 0c.032 0 0 0 0 0s0-.032 0 0c0-.032 0 0 0 0zm-5.966 14.09c.063-.095.19-.158.222-.253.127-.445.127-.476.54-.476.349-.032.698-.127.984-.318.666-.476 1.364-.857 2.03-1.333.254-.19.508-.285.857-.285 2.095.063 4.19.095 6.284.158.222 0 .445-.031.667-.031-.096-.223-.19-.413-.286-.635a331.78 331.78 0 0 1-2.444-4.697c-.634-1.174-1.174-2.412-2-3.49-.507-.667-.888-1.492-1.332-2.222-.063-.096-.127-.223-.19-.318-.127-.159-.222-.159-.318.064-.19.412-.38.793-.54 1.206-.73 1.745-1.49 3.49-2.157 5.236a67.497 67.497 0 0 0-1.492 4.253c-.349 1.015-.571 2.094-.825 3.142v0zm10.187 2.063l.381-.095c-.127-.032-.222-.032-.349-.032a.928.928 0 0 0-.286.064.98.98 0 0 0 .254.063zm-.698 0h.127c-.032 0-.063-.031-.095-.031-.095 0-.159 0-.254.031.063-.031.127-.031.222 0zm11.647 12.631c-.032-.031-.063-.031-.063-.031l-.032.031.032.032c.031 0 .031 0 .063-.032zM36.56 79.086c-2.349-.095-4.729-.19-7.077-.286-.254 0-.476-.031-.73-.063a.758.758 0 0 1-.35-.19c-.76-.794-1.49-1.619-2.22-2.412-.477-.508-.89-1.111-1.397-1.556-.35-.317-.35-.634-.318-1.047.127-1.142.223-2.253.318-3.395.159-1.683.317-3.396.476-5.078.127-1.397.222-2.793.349-4.221.19-2.126.38-4.221.571-6.347.127-1.555.222-3.079.381-4.634.127-1.333.254-2.666.413-3.998.031-.35.19-.667.54-.89 1.935-1.269 3.84-2.538 5.743-3.84.35-.253.699-.316 1.111-.285 1.619.095 3.269.19 4.887.286.223 0 .318.095.286.317-.032.381-.063.762-.063 1.143a.51.51 0 0 0 .158.349c1.238 1.079 2.444 2.221 3.745 3.237.698.54.73 1.27.92 1.968.35 1.269.635 2.57.92 3.84.604 2.824 1.239 5.617 1.715 8.441.349 2.031.57 4.063.761 6.125.222 2.508.318 5.015.571 7.49.064.73-.095 1.142-.634 1.619-.889.793-1.682 1.713-2.54 2.602l-.951.952c-.095.095-.286.127-.413.127-1.872-.064-3.745-.159-5.649-.254-.508-.032-.984 0-1.491 0h-.032zm-3.015-37.702c-.095.158-.222.317-.286.508-.444 1.015-.856 2.062-1.27 3.078-.348.857-.697 1.745-1.046 2.602-.032.095 0 .254 0 .381.031.095.127.222.095.317-.095 1.302-.222 2.634-.318 3.936-.127 1.65-.253 3.332-.38 4.982-.254 2.983-.476 5.967-.762 8.95-.222 2.666-.476 5.3-.73 7.934-.032.19 0 .285.222.285.825 0 1.65.032 2.507.064 3.967.158 7.903.317 11.838.476.317 0 .444-.064.412-.38-.127-1.366-.222-2.762-.317-4.127a311.398 311.398 0 0 0-.413-5.427 32.88 32.88 0 0 0-.285-2.475 77.742 77.742 0 0 0-.698-3.745c-.254-1.237-.476-2.443-.762-3.681-.286-1.206-.571-2.412-.889-3.618-.349-1.46-.698-2.951-1.047-4.411.064-.381.19-.699.38-.984-.063 0-.094-.064-.158-.032-.222.032-.444.222-.571-.127a20.215 20.215 0 0 0-2.38-.254c-.794-.095-1.587-.254-2.412-.349-.635-.063-1.238-.063-1.872-.095-.381 0-.445-.063-.286-.444.508-1.111.952-2.253 1.428-3.364 0-.032 0-.032 0 0 0-.032 0 0 0 0zM60.171 58.997c-.285 4.158-.602 8.347-.888 12.504-.032.508-.032 1.047-.127 1.523-.286 1.555.032 3.11.032 4.697 0 .572.031 1.143.063 1.682 0 .19-.063.286-.285.254-.19 0-.381-.031-.413.222 0 .032-.127.064-.19.064-1.016 0-2 0-3.015.032-.254 0-.35-.096-.381-.286-.222-1.523-.413-3.015-.635-4.538-.032-.254.063-.318.317-.35.603-.031.603-.031.572-.57-.064-1.841-.16-3.682-.222-5.523-.064-1.396-.128-2.824-.19-4.22-.096-1.682-.191-3.396-.255-5.078-.063-1.301-.095-2.603-.159-3.935l-.285-6.316c-.095-1.682-.159-3.332-.254-5.014-.032-.508.127-.857.603-1.175.92-.634 1.777-1.332 2.634-2.03.35-.255.762-.191 1.016.126.444.508.952.984 1.428 1.492.54.571 1.079 1.11 1.618 1.682.096.095.127.286.096.413-.127 1.999-.286 3.967-.445 5.966l-.666 8.315c-.032.063 0 .063.031.063zm-2.538-10.346v-.603c0-.032 0-.063-.032-.063v.063c0 .19 0 .381.032.603.031.413.031.825.063 1.238 0 .032.032.063.032.095 0-.032.032-.032.032-.063-.064-.413-.096-.857-.127-1.27zm-.032-3.49h.032c.031-.318.063-.635.063-.953 0-.127 0-.285-.19-.254-.064 0-.16.159-.16.254.033.762.096 1.523.16 2.285v.095c0-.031.031-.063.031-.095.032-.476.032-.888.064-1.333zm.761 17.041c0 .286.032.572.032.857 0 .032.032.064.032.096v-.064c0-.285-.032-.571-.032-.825 0-.063-.032-.095-.032-.159v.096zm.032-.634c0-.095-.032-.222-.032-.318 0 .032-.031.064-.031.096 0 .127.031.222.031.349 0-.032 0-.096.032-.127zm-.063-.794v-.095c0 .032-.032.032-.032.064v.095c0-.032.032-.064.032-.064zM57.6 47.51v-.064l-.032.032v.064c.032 0 .032-.032.032-.032zm.888 16.376c-.031 0-.031 0 0 0-.031 0-.031 0 0 0-.031.031-.031 0 0 0zm-.73-13.361c0-.032 0-.032 0 0 0-.032 0-.032 0 0 0-.032 0-.032 0 0zM6.347 43.447v2.126c.064 2.507.127 5.014.159 7.521 0 .381.127.476.476.508 1.396.095 2.824.19 4.22.286 2.19.158 4.38.285 6.57.444 1.174.095 2.349.159 3.523.222.254 0 .285.095.285.317l-.285 3.333c-.032.285-.159.349-.381.317-2.253-.159-4.507-.317-6.728-.476-2.412-.19-4.792-.349-7.204-.54-.19 0-.317-.031-.317.255.063 1.745.158 3.459.222 5.204.063 2.285.095 4.57.158 6.855.064 2.666.16 5.364.254 8.03 0 .253-.031.348-.317.348-.984 0-1.968.032-2.952.064-.253 0-.253-.127-.253-.286l-.19-5.87-.382-11.68c-.031-.92-.095-1.872-.095-2.792 0-.413-.127-.73-.38-1.08C1.84 55.411.951 54.3.094 53.158c-.063-.064-.063-.222-.063-.318l.761-4.38c.096-.475.19-.951.286-1.396.032-.19.095-.38.35-.349.063 0 .094-.031.158-.063-.032-.032-.095-.032-.127-.064-.032-.031-.095-.031-.127-.063.032-.032.032-.095.095-.127.222-.222.476-.413.698-.635.825-.92 1.619-1.872 2.444-2.76a6.058 6.058 0 0 1 1.904-1.905v2.412c-.063-.063-.095-.063-.127-.063z"/>
    <path fill="#000" d="M20.533 43.954c-.286.064-.571.096-.825.159-1.745.254-3.46.508-5.205.73-2.57.349-5.14.635-7.712.984-.285.032-.317-.064-.317-.318-.92-2.03-.762-3.617.476-4.728 1.016-.064 2.063-.159 3.079-.222 3.68-.19 7.394-.35 11.075-.54.16 0 .286 0 .445-.032.793 0 .634-.063.698.667.095.92.159 1.872.222 2.792.032.191-.032.286-.254.318-.508.032-1.015.095-1.523.127-.064 0-.127 0-.19.032.031 0 .031.031.031.031zm-5.236.159c-.54.032-1.016.063-1.492.095-.032 0-.063.032-.095.032a3.22 3.22 0 0 0 1.555 0c.159 0 .286-.064.413-.095-.16 0-.286-.032-.381-.032zm-2.73.127c0-.032-.031-.032 0 0-.285 0-.57.032-.888.063-.032 0-.064.032-.095.032.031 0 .063.032.095.032.412 0 .825-.032 1.27-.032a.59.59 0 0 0 .221-.063 1.296 1.296 0 0 0-.603-.032zM54.237 20.152v14.123h-3.11V27.23l-3.079 7.013.032.064h-3.174l.032-.064-3.142-7.14v7.172h-3.11V19.994h3.11l4.697 10.663 4.634-10.536v-.127H54.3l-.063.158zM66.01 31.419h-4.347l-.92 2.856h-3.11l4.665-14.281h3.11l4.665 14.28h-3.11l-.952-2.855zm-.92-2.857l-1.237-3.808-1.238 3.808h2.475zM85.846 34.275h-3.428l-3.903-5.3-2 2.444v2.856h-3.11V19.994h3.11v7.299l5.903-7.3h3.428l-5.586 6.824 5.586 7.458zM92.288 22.85v2.856h6.22v2.856h-6.22v2.857H100v2.856H89.178V19.994H100v2.856h-7.712zM17.55 105.871l-2.92 13.774h-2.92l-2.92-9.172-2.919 9.172H2.92L0 105.871h2.92l1.745 8.252 2.603-8.252h2.92l2.633 8.252 1.746-8.252h2.983zM33.196 112.821c0 4.158-2.412 7.141-6.792 7.141-4.443 0-6.76-2.983-6.76-7.141 0-4.094 2.413-7.14 6.76-7.14 4.348 0 6.792 3.046 6.792 7.14zm-2.888 0c0-2.507-1.397-4.379-3.904-4.379-2.507 0-3.872 1.872-3.872 4.379 0 2.571 1.333 4.38 3.872 4.38 2.507 0 3.904-1.809 3.904-4.38zM42.082 114.154h-2.825v5.491h-2.92v-13.774h6.92c3.173 0 4.76 2.063 4.76 4.158 0 1.618-.984 3.237-2.92 3.84l2.92 5.776h-3.27l-2.665-5.491zm-2.825-2.761h3.967c1.238 0 1.873-.698 1.873-1.364 0-.667-.635-1.365-1.873-1.365h-3.967v2.729zM62.837 119.645H59.6l-3.681-5.11-1.873 2.349v2.761h-2.92v-13.774h2.92v7.046l5.554-7.046h3.237l-5.268 6.601 5.268 7.173zM31.419 19.994H0v14.28h31.419v-14.28zM99.968 0H0v14.281h99.968V0zM99.968 85.687H0v14.281h99.968v-14.28zM99.968 105.681H68.55v14.281h31.418v-14.281z"/>
</svg>
