<svg xmlns="http://www.w3.org/2000/svg" width="83" height="146" fill="none" viewBox="0 0 83 146">
    <path stroke="#000" stroke-miterlimit="10" stroke-width=".75" d="M39.3 98.856c-5.23 10.258-7.732 23.365-6.822 36.017.114 1.026.227 2.165.682 2.849 1.365 1.824 3.411-.456 4.435-2.735 3.183-7.409 4.548-16.071 5.685-24.506 4.775-36.13 6.026-73.402 3.524-110.103-2.842-.114-4.548 4.56-5.343 8.435C33.274 45.742 27.93 84.038 25.656 122.79 34.41 85.634 36.57 45.97 38.732 6.761c2.842 18.806 5.799 37.613 8.641 56.42.91 6.04 1.82 12.537.227 18.236-1.591 5.699-7.05 9.574-10.574 5.813 8.641 6.61 17.17 13.107 25.81 19.718-14.212.912-28.311 1.824-42.524 2.622-1.478.114-3.184.57-3.639 2.507-.455 2.394 1.478 4.217 3.184 5.015 8.982 4.331 18.534 6.953 27.97 7.523-.454-3.42-3.07-5.243-5.343-6.497-10.802-5.927-21.604-11.968-32.406-17.895 13.304-2.735 26.38-7.408 38.887-14.019 3.07-1.596 6.595-5.47 5.116-9.574-1.023-2.622-3.524-2.964-5.685-2.736-14.781 1.596-28.54 15.615-34.224 34.992-.228.912-.569 1.937-.455 2.963.341 2.622 2.842 3.192 4.775 2.622 6.709-1.824 12.053-8.891 16.26-16.3 10.12-17.438 16.487-38.866 18.306-61.206-7.845 3.99-15.918 10.6-18.76 21.656-2.843 11.056 2.728 26.557 11.028 25.531 1.933-3.077-1.364-7.408-4.207-8.32-9.55-3.077-19.67 3.191-26.492 13.222C7.804 99.084 3.938 112.19.982 125.412c-.455 2.051-.91 4.217-.34 6.154.795 2.736 3.296 3.876 5.23 3.078 1.932-.798 3.638-2.736 5.116-4.673 12.735-17.097 22.74-38.411 28.767-61.89C28.725 65.345 16.9 72.184 10.42 84.95c4.775 2.052 9.892 2.736 14.895 2.052 2.046-.342 4.775-2.166 4.093-5.015-.341-1.368-1.25-2.166-2.16-2.736-6.254-4.33-12.963-7.18-19.898-8.206-.683-.114-1.479-.228-2.047.342-1.706 1.368-.91 5.015.114 7.408 6.367 13.906 15.577 24.848 24.9 34.992 15.578 16.413 33.202 31.914 52.304 30.774.114-4.901-3.184-8.548-6.14-11.056-18.42-15.729-39.114-26.101-60.376-30.204-1.478-.342-3.184-.57-4.548.342-4.321 2.849-2.16 12.309 1.137 17.324 6.253 9.689 14.554 16.755 23.536 20.061 4.207 1.481 8.869 2.165 12.621-1.026 4.32-3.761 6.026-11.512 6.368-18.693.91-15.615-2.388-31.686-8.983-44.223-3.184 22.681-5.344 45.591-6.367 68.729l-.683-48.213c-3.638 3.647-6.026 9.574-6.253 15.957-.455-1.938-.91-3.875-1.251-5.813-1.137 1.026-1.705 3.077-1.364 4.901l-.341-7.523c-3.184 1.14-5.572 5.927-5.23 10.714"/>
</svg>
