<svg xmlns="http://www.w3.org/2000/svg" width="26" height="26" fill="none" viewBox="0 0 26 26">
    <path fill="#EFDCD0" stroke="#EFDCD0" stroke-miterlimit="10" d="M12.988.5a6.248 6.248 0 0 1 6.25 6.25c0 3.453-2.84 5.817-6.25 6.25-3.422.433-6.25 2.797-6.25 6.25s2.555 6.25 6.008 6.25h-.03C5.866 25.339.45 19.677.5 12.988.5 6.05 6.001.463 12.988.5z"/>
    <path fill="#000" stroke="#EFDCD0" stroke-miterlimit="10" d="M12.938 25.5a6.248 6.248 0 0 1-6.25-6.25c0-3.453 2.84-5.817 6.25-6.25 3.422-.433 6.25-2.797 6.25-6.25S16.633.5 13.18.5h.03c6.85.161 12.265 5.823 12.216 12.512-.006 6.937-5.501 12.531-12.488 12.488z"/>
    <path fill="#000" stroke="#EFDCD0" stroke-miterlimit="10" d="M12.926 9.751a3.094 3.094 0 1 0 0-6.188 3.094 3.094 0 0 0 0 6.188z"/>
    <path fill="#EFDCD0" stroke="#000" stroke-miterlimit="10" d="M12.926 22.499a3.094 3.094 0 1 0 0-6.188 3.094 3.094 0 0 0 0 6.188z"/>
</svg>
